<?xml version="1.0" encoding="UTF-8" standalone="no"?>
<svg width="574px" height="284px" viewBox="0 0 574 284" version="1.1" xmlns="http://www.w3.org/2000/svg" xmlns:xlink="http://www.w3.org/1999/xlink" xmlns:sketch="http://www.bohemiancoding.com/sketch/ns">
    <!-- Generator: Sketch 3.4.3 (16618) - http://www.bohemiancoding.com/sketch -->
    <title>human error</title>
    <desc>Created with Sketch.</desc>
    <defs>
        <linearGradient x1="52.3115215%" y1="100%" x2="51.0136405%" y2="5.86639075%" id="linearGradient-1">
            <stop stop-color="#54AFFF" offset="0%"></stop>
            <stop stop-color="#50E2ED" offset="100%"></stop>
        </linearGradient>
    </defs>
    <g id="Page-1" stroke="none" stroke-width="1" fill="none" fill-rule="evenodd" sketch:type="MSPage">
        <g id="human-error" sketch:type="MSLayerGroup">
            <g id="Path-272-Copy-+-Path-Copy" transform="translate(11.000000, 24.000000)" stroke="url(#linearGradient-1)" stroke-width="8" sketch:type="MSShapeGroup">
                <path d="M367.378234,147.357868 C374.091241,124.045204 381.00166,98.0576071 390.085938,71.5875277 C419.714844,-14.7461968 485.980468,-32.9882828 521.480468,78.8645936" id="Path-272-Copy" stroke-dasharray="10"></path>
                <path d="M0.890249208,247.063337 C0.890249208,247.063337 61.292593,217.415249 88.7730617,101.631643 C116.25353,-14.1519622 197.249624,-17.2095459 227.362905,71.3045584 C257.476187,159.818663 252.163687,231.707905 304.116812,231.707905 C331.578517,231.707905 346.341557,209.020017 358.533574,174.878729 C360.5362,169.270778 362.469459,163.353809 364.378234,157.177611" id="Path-Copy"></path>
            </g>
            <circle id="Oval-55" stroke="#4F4F4F" stroke-width="2" fill="#FFFFFF" sketch:type="MSShapeGroup" cx="119" cy="73" r="6"></circle>
            <circle id="Oval-55-Copy" stroke="#4F4F4F" stroke-width="2" fill="#FFFFFF" sketch:type="MSShapeGroup" cx="267" cy="204" r="6"></circle>
            <path d="M10.496,0.608 C7.808,2.816 4.4,4.616 0.224,6.032 L0.968,7.088 C4.856,5.744 8.216,3.944 11.024,1.712 C13.52,3.848 16.856,5.576 21.032,6.872 L21.752,5.792 C17.288,4.424 13.88,2.696 11.576,0.608 L10.496,0.608 Z M9.992,4.016 L9.2,4.784 C10.496,5.48 11.504,6.152 12.248,6.8 L13.04,6.008 C12.224,5.336 11.192,4.688 9.992,4.016 L9.992,4.016 Z M18.224,11.144 L13.088,11.144 C14.6,10.232 15.968,9.248 17.168,8.168 L17.168,7.136 L4.688,7.136 L4.688,8.288 L15.368,8.288 C13.928,9.392 12.392,10.328 10.76,11.144 L3.968,11.144 L3.968,18.344 L5.264,18.344 L5.264,12.344 L16.928,12.344 L16.928,18.08 L18.224,18.08 L18.224,11.144 Z M12.632,18.104 L11.96,19.112 C14.696,19.88 17.384,20.936 19.976,22.328 L20.672,21.248 C18.272,20.024 15.584,18.968 12.632,18.104 L12.632,18.104 Z M10.592,13.832 C10.4,16.256 9.752,17.984 8.648,19.04 C7.424,20.144 4.928,20.816 1.16,21.008 L1.664,22.184 C5.792,21.872 8.48,21.08 9.728,19.832 C10.856,18.776 11.576,16.808 11.888,13.928 L10.592,13.832 Z M40.4,4.568 C41.168,7.04 42.536,9.272 44.504,11.288 L45.344,10.256 C43.376,8.576 42.008,6.656 41.192,4.496 L44.648,4.496 L44.648,3.32 L40.4,3.32 L40.4,0.464 L39.152,0.464 L39.152,3.32 L35.624,3.32 L35.624,4.496 L38.432,4.496 C37.544,6.8 36.296,8.768 34.712,10.4 L35.456,11.504 C36.944,9.752 38.168,7.52 39.152,4.784 L39.152,11.624 L40.4,11.624 L40.4,4.568 Z M25.352,3.32 L25.352,4.496 L29.384,4.496 C28.256,6.704 26.696,8.6 24.728,10.184 L25.472,11.264 C27.008,9.848 28.352,8.096 29.48,6.008 L29.48,11.576 L30.728,11.576 L30.728,6.44 C31.496,7.256 32.432,8.36 33.512,9.776 L34.232,8.744 C33.032,7.496 31.88,6.392 30.728,5.432 L30.728,4.496 L34.28,4.496 L34.28,3.32 L30.728,3.32 L30.728,0.464 L29.48,0.464 L29.48,3.32 L25.352,3.32 Z M33.152,11.192 C32.672,11.912 32.192,12.632 31.664,13.4 L24.752,13.4 L24.752,14.576 L30.824,14.576 C30.104,15.56 29.336,16.544 28.52,17.528 C30.704,18.008 32.888,18.56 35.096,19.184 C32.504,20.432 29.192,21.08 25.184,21.104 L25.88,22.208 C30.392,22.112 33.992,21.248 36.68,19.664 C39.224,20.432 41.744,21.32 44.288,22.328 L45.08,21.296 C42.632,20.336 40.232,19.52 37.88,18.824 C39.224,17.768 40.376,16.352 41.384,14.576 L45.296,14.576 L45.296,13.4 L33.152,13.4 C33.536,12.848 33.968,12.248 34.4,11.576 L33.152,11.192 Z M40.04,14.576 C39.128,16.16 37.928,17.432 36.464,18.416 C34.424,17.816 32.432,17.312 30.488,16.928 C31.064,16.256 31.664,15.464 32.312,14.576 L40.04,14.576 Z M62.648,0.32 L54.032,22.4 L55.352,22.4 L63.968,0.32 L62.648,0.32 Z M73.736,0.944 L72.824,1.808 C74.6,3.128 75.992,4.376 77.048,5.576 L77.96,4.64 C76.808,3.416 75.416,2.192 73.736,0.944 L73.736,0.944 Z M88.112,21.896 L93.488,21.896 L93.8,20.576 C93.2,20.6 92.336,20.624 91.232,20.672 L87.92,20.672 C86,20.672 84.416,20.648 83.192,20.624 C81.752,20.576 80.648,20.408 79.856,20.12 C79.136,19.784 78.464,19.256 77.84,18.536 C77.6,18.224 77.336,18.008 77.072,17.864 L77.072,8.888 L72.296,8.888 L72.296,10.136 L75.848,10.136 L75.848,17.816 C74.864,18.152 73.712,19.376 72.368,21.488 L73.352,22.352 C74.768,20.096 75.8,18.992 76.448,18.992 C76.736,18.992 77.048,19.184 77.384,19.616 C78.152,20.528 79.016,21.104 79.952,21.392 C80.912,21.656 82.184,21.8 83.768,21.848 C85.328,21.872 86.768,21.896 88.112,21.896 L88.112,21.896 Z M85.04,0.44 C84.896,1.4 84.656,2.336 84.344,3.248 L80.72,3.248 L80.72,18.152 L92.144,18.152 L92.144,11.792 L81.968,11.792 L81.968,9.176 L91.448,9.176 L91.448,3.248 L85.592,3.248 C85.928,2.432 86.168,1.568 86.36,0.608 L85.04,0.44 Z M81.968,12.944 L90.896,12.944 L90.896,16.928 L81.968,16.928 L81.968,12.944 Z M81.968,8.096 L81.968,4.472 L90.176,4.472 L90.176,8.096 L81.968,8.096 Z M107.048,0.32 L105.632,0.56 C105.944,1.16 106.232,1.832 106.496,2.576 L96.44,2.576 L96.44,3.824 L117.536,3.824 L117.536,2.576 L107.864,2.576 C107.6,1.736 107.336,0.992 107.048,0.32 L107.048,0.32 Z M113.744,22.28 C115.376,22.28 116.192,21.56 116.192,20.12 L116.192,11.792 L97.808,11.792 L97.808,22.328 L99.032,22.328 L99.032,12.968 L114.968,12.968 L114.968,19.856 C114.968,20.72 114.416,21.152 113.336,21.152 L111.392,21.104 L111.704,22.28 L113.744,22.28 Z M100.496,5.672 L100.496,10.088 L113.528,10.088 L113.528,5.672 L100.496,5.672 Z M112.28,9.032 L101.744,9.032 L101.744,6.728 L112.28,6.728 L112.28,9.032 Z M102.44,14.768 L102.44,19.4 L111.608,19.4 L111.608,14.768 L102.44,14.768 Z M110.408,18.368 L103.616,18.368 L103.616,15.824 L110.408,15.824 L110.408,18.368 Z M122.576,8.168 L121.952,9.104 C123.68,9.776 125.36,10.736 126.992,11.96 L127.664,10.928 C126.128,9.848 124.424,8.936 122.576,8.168 L122.576,8.168 Z M124.856,4.76 L124.232,5.696 C125.864,6.416 127.448,7.376 128.984,8.624 L129.68,7.568 C128.216,6.464 126.608,5.528 124.856,4.76 L124.856,4.76 Z M131.744,4.568 L131.744,9.608 C131.696,11.024 131.504,12.32 131.144,13.52 L120.776,13.52 L120.776,14.816 L130.64,14.816 C130.304,15.536 129.872,16.208 129.368,16.832 C127.712,18.656 124.904,20.096 120.944,21.128 L121.688,22.256 C125.672,21.176 128.504,19.688 130.232,17.792 C130.424,17.576 130.592,17.336 130.784,17.072 C134,18.584 137.144,20.336 140.168,22.352 L141.08,21.368 C138.2,19.448 134.984,17.696 131.432,16.088 C131.648,15.68 131.84,15.248 132.032,14.816 L141.608,14.816 L141.608,13.52 L132.488,13.52 C132.824,12.32 132.992,11.024 133.016,9.608 L133.016,4.568 L131.744,4.568 Z M121.736,1.976 L121.736,3.2 L138.488,3.2 C138.152,4.496 137.696,5.696 137.168,6.776 L138.392,7.136 C138.968,5.72 139.448,4.28 139.808,2.816 L139.808,1.976 L121.736,1.976 Z M154.136,5.864 C152.624,12.464 149.24,17.48 144.008,20.912 L144.824,22.016 C149.96,18.632 153.32,13.76 154.88,7.376 C155.072,7.808 155.288,8.312 155.48,8.84 C157.904,15.152 161.096,19.52 165.056,21.944 L165.848,20.912 C161.984,18.464 158.936,14.36 156.68,8.552 C155.24,4.712 153.416,2.024 151.184,0.44 L150.104,1.16 C151.688,2.264 153.032,3.824 154.136,5.864 L154.136,5.864 Z" id="贪婪／追高买入" fill="#4F4F4F" sketch:type="MSShapeGroup"></path>
            <path d="M427.008,154.6 C426.648,154.6 426.36,154.696 426.144,154.936 C425.904,155.152 425.784,155.44 425.784,155.8 C425.784,156.136 425.904,156.4 426.144,156.64 C426.36,156.88 426.648,157 427.008,157 C427.344,157 427.632,156.88 427.872,156.664 C428.112,156.424 428.232,156.136 428.232,155.8 C428.232,155.44 428.112,155.152 427.872,154.936 C427.632,154.696 427.344,154.6 427.008,154.6 L427.008,154.6 Z M435,154.6 C434.664,154.6 434.376,154.696 434.136,154.936 C433.896,155.152 433.776,155.44 433.776,155.8 C433.776,156.136 433.896,156.4 434.136,156.64 C434.376,156.88 434.664,157 435,157 C435.336,157 435.648,156.88 435.888,156.664 C436.104,156.424 436.224,156.136 436.224,155.8 C436.224,155.44 436.104,155.152 435.888,154.936 C435.648,154.696 435.336,154.6 435,154.6 L435,154.6 Z M442.992,154.6 C442.656,154.6 442.368,154.696 442.128,154.936 C441.888,155.152 441.768,155.44 441.768,155.8 C441.768,156.136 441.888,156.4 442.128,156.64 C442.368,156.88 442.656,157 442.992,157 C443.328,157 443.616,156.88 443.856,156.664 C444.096,156.424 444.216,156.136 444.216,155.8 C444.216,155.44 444.096,155.152 443.856,154.936 C443.616,154.696 443.328,154.6 442.992,154.6 L442.992,154.6 Z M451.008,154.6 C450.648,154.6 450.36,154.696 450.144,154.936 C449.904,155.152 449.784,155.44 449.784,155.8 C449.784,156.136 449.904,156.4 450.144,156.64 C450.36,156.88 450.648,157 451.008,157 C451.344,157 451.632,156.88 451.872,156.664 C452.112,156.424 452.232,156.136 452.232,155.8 C452.232,155.44 452.112,155.152 451.872,154.936 C451.632,154.696 451.344,154.6 451.008,154.6 L451.008,154.6 Z M459,154.6 C458.664,154.6 458.376,154.696 458.136,154.936 C457.896,155.152 457.776,155.44 457.776,155.8 C457.776,156.136 457.896,156.4 458.136,156.64 C458.376,156.88 458.664,157 459,157 C459.336,157 459.648,156.88 459.888,156.664 C460.104,156.424 460.224,156.136 460.224,155.8 C460.224,155.44 460.104,155.152 459.888,154.936 C459.648,154.696 459.336,154.6 459,154.6 L459,154.6 Z M466.992,154.6 C466.656,154.6 466.368,154.696 466.128,154.936 C465.888,155.152 465.768,155.44 465.768,155.8 C465.768,156.136 465.888,156.4 466.128,156.64 C466.368,156.88 466.656,157 466.992,157 C467.328,157 467.616,156.88 467.856,156.664 C468.096,156.424 468.216,156.136 468.216,155.8 C468.216,155.44 468.096,155.152 467.856,154.936 C467.616,154.696 467.328,154.6 466.992,154.6 L466.992,154.6 Z M482.832,144.568 L482.832,152.296 L490.32,152.296 L490.32,154.24 L481.608,154.24 L481.608,155.32 L490.32,155.32 L490.32,157.504 L480.408,157.504 L480.408,158.656 L501.576,158.656 L501.576,157.504 L491.616,157.504 L491.616,155.32 L500.4,155.32 L500.4,154.24 L491.616,154.24 L491.616,152.296 L499.128,152.296 L499.128,144.568 L491.616,144.568 L491.616,142.744 L501.216,142.744 L501.216,141.592 L491.616,141.592 L491.616,139.48 C494.352,139.288 496.872,139.048 499.2,138.808 L498.792,137.728 C494.04,138.256 488.544,138.64 482.304,138.856 L482.52,139.96 C485.256,139.84 487.848,139.696 490.32,139.552 L490.32,141.592 L480.768,141.592 L480.768,142.744 L490.32,142.744 L490.32,144.568 L482.832,144.568 Z M497.88,151.216 L491.616,151.216 L491.616,148.936 L497.88,148.936 L497.88,151.216 Z M490.32,151.216 L484.104,151.216 L484.104,148.936 L490.32,148.936 L490.32,151.216 Z M484.104,147.88 L484.104,145.648 L490.32,145.648 L490.32,147.88 L484.104,147.88 Z M491.616,145.648 L497.88,145.648 L497.88,147.88 L491.616,147.88 L491.616,145.648 Z M509.544,140.488 L524.472,140.488 L524.472,139.36 L510.144,139.36 C510.432,138.736 510.672,138.112 510.888,137.464 L509.592,137.248 C508.68,139.984 506.976,142.312 504.432,144.208 L505.224,145.24 C507.024,143.872 508.464,142.288 509.544,140.488 L509.544,140.488 Z M508.368,142.456 L508.368,149.776 L511.584,149.776 C510.264,151.648 508.152,153.208 505.248,154.408 L505.92,155.512 C507.216,154.912 508.392,154.24 509.424,153.52 C510.84,154.792 512.448,155.848 514.248,156.712 C511.656,157.528 508.56,158.032 504.936,158.2 L505.488,159.352 C509.52,159.112 512.976,158.464 515.808,157.384 C518.568,158.488 521.736,159.112 525.312,159.256 L525.6,158.056 C522.576,157.936 519.816,157.48 517.344,156.712 C519.48,155.68 521.184,154.336 522.48,152.656 L522.48,151.696 L511.512,151.696 C512.04,151.12 512.52,150.472 512.952,149.776 L522.48,149.776 L522.48,142.456 L508.368,142.456 Z M515.784,156.16 C513.696,155.32 511.872,154.216 510.288,152.848 L510.36,152.776 L520.872,152.776 C519.576,154.168 517.896,155.296 515.784,156.16 L515.784,156.16 Z M521.208,148.72 L509.64,148.72 L509.64,146.608 L521.208,146.608 L521.208,148.72 Z M509.64,145.576 L509.64,143.512 L521.208,143.512 L521.208,145.576 L509.64,145.576 Z M533.16,137.92 C532.056,141.232 530.4,143.872 528.24,145.84 L529.296,146.776 C530.376,145.792 531.36,144.568 532.248,143.08 L538.368,143.08 L538.368,144.928 C538.344,146.128 538.224,147.256 538.032,148.312 L528.576,148.312 L528.576,149.584 L537.744,149.584 C537.36,150.976 536.832,152.2 536.112,153.256 C534.528,155.32 531.84,156.952 528.072,158.152 L528.816,159.256 C532.608,158.056 535.344,156.352 537,154.192 C537.912,152.944 538.608,151.456 539.064,149.728 C540.312,153.76 543.672,156.952 549.144,159.256 L549.864,158.128 C544.656,156.112 541.44,153.256 540.216,149.584 L549.432,149.584 L549.432,148.312 L539.376,148.312 C539.544,147.28 539.64,146.152 539.664,144.928 L539.664,143.08 L547.896,143.08 L547.896,141.784 L539.664,141.784 L539.664,137.464 L538.368,137.464 L538.368,141.784 L532.968,141.784 C533.472,140.776 533.952,139.672 534.384,138.424 L533.16,137.92 Z M565.944,142.552 L570.696,142.552 C570.624,146.392 569.88,149.656 568.464,152.368 C566.952,149.872 566.016,146.92 565.656,143.464 C565.752,143.176 565.848,142.864 565.944,142.552 L565.944,142.552 Z M564.816,145.528 C565.344,148.6 566.304,151.288 567.744,153.616 C566.568,155.44 565.032,156.952 563.112,158.176 L563.832,159.304 C565.704,158.056 567.24,156.544 568.488,154.744 C569.76,156.52 571.368,158.032 573.288,159.304 L573.984,158.128 C572.088,156.856 570.504,155.32 569.232,153.544 C570.912,150.568 571.824,146.896 571.92,142.552 L573.6,142.552 L573.6,141.28 L566.304,141.28 C566.592,140.104 566.856,138.832 567.048,137.464 L565.752,137.296 C565.224,141.592 564.072,144.928 562.296,147.28 L563.088,148.288 C563.712,147.52 564.288,146.608 564.816,145.528 L564.816,145.528 Z M561.648,138.52 L553.128,138.52 L553.128,153.328 L554.352,153.328 L554.352,139.72 L560.448,139.72 L560.448,153.352 L561.648,153.352 L561.648,138.52 Z M558.888,154.168 L558.024,154.984 C559.464,156.472 560.592,157.864 561.456,159.208 L562.392,158.272 C561.456,156.904 560.28,155.536 558.888,154.168 L558.888,154.168 Z M556.824,141.76 L556.824,149.008 C556.8,151.36 556.464,153.256 555.816,154.72 C555.096,156.16 553.872,157.312 552.144,158.128 L552.864,159.232 C554.664,158.368 555.96,157.168 556.752,155.632 C557.544,153.952 557.952,151.744 558,149.008 L558,141.76 L556.824,141.76 Z M480.984,188.76 L480.984,190.008 L488.016,190.008 C486.336,192.936 484.248,195.12 481.776,196.536 L482.112,197.664 C487.344,197.424 492.408,196.896 497.328,196.128 C497.976,196.944 498.552,197.76 499.056,198.528 L500.136,197.76 C498.936,195.984 497.232,193.92 495,191.544 L493.944,192.192 C494.856,193.152 495.696,194.088 496.464,195.024 C492.456,195.696 488.328,196.128 484.104,196.368 C486.168,194.808 487.968,192.696 489.48,190.008 L500.808,190.008 L500.808,188.76 L480.984,188.76 Z M482.232,201.336 L482.232,202.56 L490.296,202.56 L490.296,207.048 L480.456,207.048 L480.456,208.32 L501.432,208.32 L501.432,207.048 L491.592,207.048 L491.592,202.56 L499.56,202.56 L499.56,201.336 L491.592,201.336 L491.592,198.288 L490.296,198.288 L490.296,201.336 L482.232,201.336 Z M516.456,205.752 C514.776,206.136 513.024,206.472 511.248,206.76 L511.248,201.96 L515.808,201.96 L515.808,200.712 L511.248,200.712 L511.248,197.712 L509.952,197.712 L509.952,200.712 L505.104,200.712 L505.104,201.96 L509.952,201.96 L509.952,206.976 C508.08,207.264 506.184,207.528 504.24,207.72 L504.552,208.968 C508.824,208.464 512.784,207.816 516.456,207.048 L516.456,205.752 Z M504.528,188.64 L504.528,189.888 L508.728,189.888 C507.312,192.792 506.016,194.76 504.84,195.792 C504.72,195.84 504.552,195.864 504.336,195.912 L504.624,197.088 C508.296,196.752 511.68,196.32 514.752,195.792 C515.136,196.464 515.472,197.112 515.808,197.736 L516.864,196.992 C516,195.36 514.776,193.416 513.144,191.208 L512.136,191.832 C512.856,192.864 513.528,193.848 514.128,194.784 C511.776,195.192 509.208,195.528 506.472,195.792 C507.624,194.52 508.824,192.552 510.072,189.888 L516.36,189.888 L516.36,188.64 L504.528,188.64 Z M522.768,209.112 C524.112,209.112 524.784,208.44 524.784,207.12 L524.784,187.536 L523.464,187.536 L523.464,206.784 C523.464,207.552 523.08,207.96 522.312,207.96 C521.256,207.96 520.128,207.912 518.976,207.864 L519.264,209.112 L522.768,209.112 Z M518.52,189.696 L518.52,204.624 L519.792,204.624 L519.792,189.696 L518.52,189.696 Z M528.696,188.952 L528.696,190.2 L531.336,190.2 C530.808,193.848 529.68,197.064 527.952,199.848 L528.648,200.976 C529.248,200.064 529.8,199.08 530.28,198.048 L530.28,208.536 L531.504,208.536 L531.504,206.376 L535.392,206.376 L535.392,196.008 L531.12,196.008 C531.768,194.232 532.248,192.288 532.56,190.2 L536.208,190.2 L536.208,188.952 L528.696,188.952 Z M531.504,205.2 L531.504,197.208 L534.216,197.208 L534.216,205.2 L531.504,205.2 Z M547.896,191.832 C547.608,192.984 547.248,194.04 546.816,195 L547.968,195.312 C548.496,194.016 548.904,192.648 549.192,191.256 L549.192,190.608 L544.128,190.608 L544.128,187.44 L542.856,187.44 L542.856,190.608 L537.576,190.608 L537.576,197.16 C537.504,201.768 536.616,205.536 534.936,208.464 L535.896,209.328 C537.648,206.208 538.608,202.512 538.776,198.216 L539.664,198.216 C540.24,200.664 541.392,202.824 543.096,204.744 C541.704,206.232 539.904,207.432 537.72,208.368 L538.512,209.352 C540.672,208.392 542.496,207.144 543.936,205.632 C545.328,207 547.104,208.224 549.24,209.304 L549.936,208.2 C547.872,207.192 546.12,206.04 544.728,204.72 C546.216,202.896 547.248,200.688 547.8,198.12 L547.8,197.016 L544.128,197.016 L544.128,191.832 L547.896,191.832 Z M540.816,198.216 L546.552,198.216 C546.048,200.352 545.16,202.224 543.864,203.856 C542.376,202.2 541.344,200.328 540.816,198.216 L540.816,198.216 Z M538.8,197.016 L538.8,191.832 L542.856,191.832 L542.856,197.016 L538.8,197.016 Z M562.824,187.128 L561.48,187.344 C561.912,188.136 562.32,189.024 562.704,190.032 L553.68,190.032 L553.68,191.28 L558.168,191.28 L559.272,195.336 L554.328,195.336 L554.328,200.376 C554.256,203.808 553.488,206.496 552.024,208.44 L552.984,209.328 C554.664,207.072 555.552,204.096 555.648,200.376 L555.648,196.608 L573.024,196.608 L573.024,195.336 L566.952,195.336 C567.552,194.04 567.984,192.672 568.272,191.28 L572.52,191.28 L572.52,190.032 L564,190.032 C563.64,188.928 563.256,187.968 562.824,187.128 L562.824,187.128 Z M560.592,195.336 L559.464,191.28 L567,191.28 C566.76,192.696 566.328,194.04 565.704,195.336 L560.592,195.336 Z" id="……-重复失败" fill="#4F4F4F" sketch:type="MSShapeGroup"></path>
            <path d="M138.848,270.339531 L138.848,271.371531 L145.352,271.371531 L145.352,273.411531 L135.656,273.411531 L135.656,274.539531 L145.352,274.539531 L145.352,275.643531 L146.648,275.643531 L146.648,274.539531 L156.368,274.539531 L156.368,273.411531 L146.648,273.411531 L146.648,271.371531 L153.176,271.371531 L153.176,270.339531 L146.648,270.339531 L146.648,268.419531 L154.496,268.419531 L154.496,267.339531 L146.648,267.339531 L146.648,265.659531 L145.352,265.659531 L145.352,267.339531 L137.6,267.339531 L137.6,264.675531 L154.448,264.675531 L154.448,267.243531 L155.744,267.243531 L155.744,263.451531 L146.96,263.451531 C146.672,262.611531 146.384,261.867531 146.048,261.195531 L144.704,261.435531 C145.04,262.035531 145.352,262.707531 145.64,263.451531 L136.304,263.451531 L136.304,267.699531 L137.504,267.699531 L137.504,268.419531 L145.352,268.419531 L145.352,270.339531 L138.848,270.339531 Z M153.728,276.603531 L138.296,276.603531 L138.296,283.347531 L139.568,283.347531 L139.568,282.291531 L152.456,282.291531 L152.456,283.347531 L153.728,283.347531 L153.728,276.603531 Z M139.568,281.163531 L139.568,277.731531 L152.456,277.731531 L152.456,281.163531 L139.568,281.163531 Z M179.528,265.275531 L173.36,265.275531 C173.984,264.123531 174.464,262.875531 174.8,261.483531 L173.48,261.291531 C173.192,262.683531 172.736,264.003531 172.112,265.275531 L168.944,265.275531 L168.944,283.227531 L170.168,283.227531 L170.168,281.907531 L178.28,281.907531 L178.28,283.251531 L179.528,283.251531 L179.528,265.275531 Z M170.168,280.683531 L170.168,274.083531 L178.28,274.083531 L178.28,280.683531 L170.168,280.683531 Z M170.168,272.883531 L170.168,266.499531 L178.28,266.499531 L178.28,272.883531 L170.168,272.883531 Z M160.16,266.043531 C160.064,268.299531 159.704,270.459531 159.032,272.523531 L160.112,272.835531 C160.784,270.723531 161.144,268.491531 161.24,266.139531 L160.16,266.043531 Z M165.704,265.611531 L164.744,265.923531 C165.464,267.651531 166.04,269.427531 166.496,271.299531 L167.528,271.035531 C167,268.995531 166.376,267.195531 165.704,265.611531 L165.704,265.611531 Z M162.68,261.531531 L162.68,283.275531 L163.952,283.275531 L163.952,261.531531 L162.68,261.531531 Z M197.648,261.339531 L189.032,283.419531 L190.352,283.419531 L198.968,261.339531 L197.648,261.339531 Z M209.24,261.867531 L208.304,262.755531 C209.816,263.859531 211.016,264.891531 211.904,265.899531 L212.816,264.963531 C211.856,263.931531 210.656,262.899531 209.24,261.867531 L209.24,261.867531 Z M208.448,267.651531 L207.536,268.539531 C209.144,269.787531 210.416,270.987531 211.376,272.115531 L212.288,271.179531 C211.28,270.003531 209.984,268.827531 208.448,267.651531 L208.448,267.651531 Z M211.208,274.251531 C210.248,277.083531 209.144,279.867531 207.848,282.555531 L209.048,283.083531 C210.272,280.467531 211.376,277.659531 212.36,274.683531 L211.208,274.251531 Z M220.328,261.459531 L220.328,263.091531 L213.944,263.091531 L213.944,264.195531 L220.328,264.195531 L220.328,266.091531 L214.928,266.091531 L214.928,267.195531 L220.328,267.195531 L220.328,269.115531 L213.2,269.115531 L213.2,270.243531 L228.824,270.243531 L228.824,269.115531 L221.624,269.115531 L221.624,267.195531 L227.264,267.195531 L227.264,266.091531 L221.624,266.091531 L221.624,264.195531 L228.176,264.195531 L228.176,263.091531 L221.624,263.091531 L221.624,261.459531 L220.328,261.459531 Z M216.704,276.363531 L225.32,276.363531 L225.32,278.355531 L216.704,278.355531 L216.704,276.363531 Z M225.32,275.331531 L216.704,275.331531 L216.704,273.243531 L225.32,273.243531 L225.32,275.331531 Z M216.704,279.411531 L225.32,279.411531 L225.32,281.211531 C225.32,281.811531 225.032,282.123531 224.504,282.123531 L222.2,282.051531 L222.512,283.227531 L224.888,283.227531 C225.992,283.227531 226.568,282.627531 226.568,281.475531 L226.568,272.139531 L215.48,272.139531 L215.48,283.347531 L216.704,283.347531 L216.704,279.411531 Z M241.544,261.531531 C238.736,265.083531 235.232,268.059531 231.008,270.459531 L231.632,271.611531 C235.928,269.115531 239.384,266.163531 242,262.731531 C244.832,266.331531 248.264,269.235531 252.272,271.467531 L252.92,270.315531 C248.984,268.179531 245.48,265.251531 242.456,261.531531 L241.544,261.531531 Z M246.416,271.419531 L246.416,275.307531 C246.416,276.171531 246.056,276.603531 245.384,276.603531 C244.304,276.603531 243.152,276.555531 241.952,276.507531 L242.312,277.731531 C243.44,277.779531 244.616,277.827531 245.816,277.827531 C247.064,277.779531 247.712,277.035531 247.712,275.643531 L247.712,270.219531 L236.168,270.219531 L236.168,280.779531 C236.168,282.219531 236.912,282.963531 238.424,282.963531 L246.896,282.963531 C248.384,282.963531 249.392,282.723531 249.92,282.291531 C250.52,281.763531 250.928,280.347531 251.144,278.091531 L249.944,277.683531 C249.776,279.315531 249.512,280.419531 249.152,280.995531 C248.816,281.475531 247.976,281.739531 246.632,281.739531 L238.88,281.739531 C237.944,281.739531 237.488,281.283531 237.488,280.395531 L237.488,271.419531 L246.416,271.419531 Z" id="害怕／清仓" fill="#4F4F4F" sketch:type="MSShapeGroup"></path>
            <path d="M79.9394531,36.0917969 C79.9394531,36.0917969 86.390625,53.7753906 102.091797,62.3203125" id="Path-275" stroke="#4F4F4F" stroke-width="2" sketch:type="MSShapeGroup"></path>
            <path id="Path-275-decoration-1" d="M91.171561,59.7927745 L102.091797,62.3203125 L94.039666,54.5226726" stroke="#4F4F4F" stroke-width="2"></path>
            <path d="M207,240.865234 C207,240.865234 209.837891,230.777344 244.25293,214" id="Path-7383" stroke="#4F4F4F" stroke-width="2" sketch:type="MSShapeGroup"></path>
            <path id="Path-7383-decoration-1" d="M235.859673,221.429216 L244.25293,214 L233.230458,216.035958" stroke="#4F4F4F" stroke-width="2"></path>
        </g>
    </g>
</svg>