<?xml version="1.0" encoding="UTF-8" standalone="no"?>
<svg width="623px" height="274px" viewBox="0 0 623 274" version="1.1" xmlns="http://www.w3.org/2000/svg" xmlns:xlink="http://www.w3.org/1999/xlink" xmlns:sketch="http://www.bohemiancoding.com/sketch/ns">
    <!-- Generator: Sketch 3.4.3 (16618) - http://www.bohemiancoding.com/sketch -->
    <title>Group Copy</title>
    <desc>Created with Sketch.</desc>
    <defs>
        <linearGradient x1="0.25781251%" y1="49.7500002%" x2="50%" y2="0%" id="linearGradient-1">
            <stop stop-color="#54AFFF" offset="0%"></stop>
            <stop stop-color="#50E2ED" offset="100%"></stop>
        </linearGradient>
        <linearGradient x1="50%" y1="0%" x2="50%" y2="100%" id="linearGradient-2">
            <stop stop-color="#656565" offset="0%"></stop>
            <stop stop-color="#909090" stop-opacity="0.667006341" offset="100%"></stop>
        </linearGradient>
        <linearGradient x1="0.25781251%" y1="49.7500002%" x2="63.6793199%" y2="73.0381164%" id="linearGradient-3">
            <stop stop-color="#54AFFF" offset="0%"></stop>
            <stop stop-color="#50E2ED" offset="100%"></stop>
        </linearGradient>
    </defs>
    <g id="Page-1" stroke="none" stroke-width="1" fill="none" fill-rule="evenodd" sketch:type="MSPage">
        <g id="Group-Copy" sketch:type="MSLayerGroup">
            <path d="M100.8,201.746193 C156.470303,201.746193 201.6,156.583769 201.6,100.873096 C201.6,45.1624236 156.470303,0 100.8,0 C45.1296972,0 0,45.1624236 0,100.873096 C0,156.583769 45.1296972,201.746193 100.8,201.746193 Z" id="Oval-76" opacity="0.898495802" fill="url(#linearGradient-1)" sketch:type="MSShapeGroup"></path>
            <path d="M100.8,0 C156.470303,0 201.6,45.1624236 201.6,100.873096 C201.6,156.583769 156.470303,201.746193 100.8,201.746193 L100.8,-8.8817842e-16 Z" id="Oval-76-Copy-6" fill="#EEEEEE" sketch:type="MSShapeGroup"></path>
            <path d="M128.646,91.6670985 L127.6884,101.595898 L129.654,101.595898 C130.0068,100.890298 130.5612,100.335898 131.2668,99.9830985 C131.9472,99.6050985 132.7032,99.4286985 133.56,99.4286985 C134.8704,99.4286985 135.9036,99.8066985 136.6344,100.613098 C137.3904,101.394298 137.7936,102.503098 137.7936,103.939498 C137.7936,105.199498 137.3652,106.232698 136.5588,107.039098 C135.7272,107.845498 134.694,108.248698 133.434,108.248698 C132.3252,108.248698 131.3928,107.971498 130.6872,107.442298 C129.8808,106.837498 129.4272,105.955498 129.3264,104.821498 L127.2852,104.821498 C127.4112,106.459498 128.0916,107.769898 129.3516,108.727498 C130.4604,109.584298 131.8212,110.012698 133.4088,110.012698 C135.1728,110.012698 136.6848,109.458298 137.8944,108.374698 C139.1796,107.215498 139.8348,105.728698 139.8348,103.914298 C139.8348,101.973898 139.2804,100.461898 138.222,99.3530985 C137.1636,98.2694985 135.7776,97.7402985 134.064,97.7402985 C133.2324,97.7402985 132.4764,97.8662985 131.7708,98.1686985 C130.9896,98.4710985 130.3344,98.9246985 129.8304,99.5294985 L129.7296,99.5294985 L130.3344,93.5066985 L139.104,93.5066985 L139.104,91.6670985 L128.646,91.6670985 Z M148.68,91.3142985 C146.5128,91.3142985 144.9,92.2466985 143.8164,94.1618985 C142.8588,95.7746985 142.38,97.9418985 142.38,100.663498 C142.38,103.385098 142.8588,105.552298 143.8164,107.165098 C144.9,109.055098 146.5128,110.012698 148.68,110.012698 C150.822,110.012698 152.4348,109.055098 153.5436,107.165098 C154.5012,105.552298 154.98,103.385098 154.98,100.663498 C154.98,97.9418985 154.5012,95.7746985 153.5436,94.1618985 C152.4348,92.2466985 150.822,91.3142985 148.68,91.3142985 L148.68,91.3142985 Z M148.68,93.0782985 C150.2928,93.0782985 151.452,93.9350985 152.1576,95.6738985 C152.6616,96.8834985 152.9388,98.5466985 152.9388,100.663498 C152.9388,102.755098 152.6616,104.418298 152.1576,105.653098 C151.452,107.366698 150.2928,108.248698 148.68,108.248698 C147.0672,108.248698 145.908,107.366698 145.2024,105.653098 C144.6984,104.418298 144.4464,102.755098 144.4464,100.663498 C144.4464,98.5466985 144.6984,96.8834985 145.2024,95.6738985 C145.908,93.9350985 147.0672,93.0782985 148.68,93.0782985 L148.68,93.0782985 Z M174.8628,99.8066985 C173.502,99.8066985 172.4688,100.285498 171.7632,101.293498 C171.108,102.150298 170.8056,103.309498 170.8056,104.745898 C170.8056,106.157098 171.108,107.291098 171.7632,108.198298 C172.4688,109.155898 173.502,109.659898 174.8628,109.659898 C176.1984,109.659898 177.2316,109.155898 177.9624,108.198298 C178.5924,107.316298 178.92,106.157098 178.92,104.745898 C178.92,103.309498 178.5924,102.150298 177.9624,101.293498 C177.2316,100.285498 176.1984,99.8066985 174.8628,99.8066985 L174.8628,99.8066985 Z M172.6956,91.3142985 L162.5904,110.012698 L164.2284,110.012698 L174.3084,91.3142985 L172.6956,91.3142985 Z M162.0612,91.6670985 C160.7004,91.6670985 159.6672,92.1458985 158.9616,93.1538985 C158.3064,94.0106985 158.004,95.1698985 158.004,96.6062985 C158.004,98.0174985 158.3064,99.1514985 158.9616,100.058698 C159.6672,101.016298 160.7004,101.520298 162.0612,101.520298 C163.3968,101.520298 164.43,101.016298 165.1608,100.058698 C165.7908,99.1766985 166.1184,98.0174985 166.1184,96.6062985 C166.1184,95.1698985 165.7908,94.0106985 165.1608,93.1538985 C164.43,92.1458985 163.3968,91.6670985 162.0612,91.6670985 L162.0612,91.6670985 Z M174.8628,101.167498 C175.6188,101.167498 176.1732,101.520298 176.5512,102.251098 C176.8536,102.855898 177.03,103.687498 177.03,104.745898 C177.03,105.779098 176.8536,106.585498 176.5512,107.190298 C176.1732,107.921098 175.6188,108.299098 174.8628,108.299098 C174.0816,108.299098 173.5272,107.921098 173.1744,107.215498 C172.8468,106.610698 172.6956,105.779098 172.6956,104.745898 C172.6956,103.662298 172.8468,102.830698 173.1744,102.225898 C173.5272,101.520298 174.0816,101.167498 174.8628,101.167498 L174.8628,101.167498 Z M162.0612,93.0278985 C162.8172,93.0278985 163.3716,93.3806985 163.7244,94.1114985 C164.052,94.7162985 164.2284,95.5478985 164.2284,96.6062985 C164.2284,97.6394985 164.052,98.4458985 163.7496,99.0506985 C163.3716,99.7814985 162.8172,100.159498 162.0612,100.159498 C161.28,100.159498 160.7256,99.7814985 160.3728,99.0758985 C160.0452,98.4710985 159.894,97.6394985 159.894,96.6062985 C159.894,95.5226985 160.0452,94.6910985 160.3728,94.0862985 C160.7256,93.3806985 161.28,93.0278985 162.0612,93.0278985 L162.0612,93.0278985 Z" id="50%-copy" fill="#181818" sketch:type="MSShapeGroup"></path>
            <path d="M29.246,91.6670985 L28.2884,101.595898 L30.254,101.595898 C30.6068,100.890298 31.1612,100.335898 31.8668,99.9830985 C32.5472,99.6050985 33.3032,99.4286985 34.16,99.4286985 C35.4704,99.4286985 36.5036,99.8066985 37.2344,100.613098 C37.9904,101.394298 38.3936,102.503098 38.3936,103.939498 C38.3936,105.199498 37.9652,106.232698 37.1588,107.039098 C36.3272,107.845498 35.294,108.248698 34.034,108.248698 C32.9252,108.248698 31.9928,107.971498 31.2872,107.442298 C30.4808,106.837498 30.0272,105.955498 29.9264,104.821498 L27.8852,104.821498 C28.0112,106.459498 28.6916,107.769898 29.9516,108.727498 C31.0604,109.584298 32.4212,110.012698 34.0088,110.012698 C35.7728,110.012698 37.2848,109.458298 38.4944,108.374698 C39.7796,107.215498 40.4348,105.728698 40.4348,103.914298 C40.4348,101.973898 39.8804,100.461898 38.822,99.3530985 C37.7636,98.2694985 36.3776,97.7402985 34.664,97.7402985 C33.8324,97.7402985 33.0764,97.8662985 32.3708,98.1686985 C31.5896,98.4710985 30.9344,98.9246985 30.4304,99.5294985 L30.3296,99.5294985 L30.9344,93.5066985 L39.704,93.5066985 L39.704,91.6670985 L29.246,91.6670985 Z M49.28,91.3142985 C47.1128,91.3142985 45.5,92.2466985 44.4164,94.1618985 C43.4588,95.7746985 42.98,97.9418985 42.98,100.663498 C42.98,103.385098 43.4588,105.552298 44.4164,107.165098 C45.5,109.055098 47.1128,110.012698 49.28,110.012698 C51.422,110.012698 53.0348,109.055098 54.1436,107.165098 C55.1012,105.552298 55.58,103.385098 55.58,100.663498 C55.58,97.9418985 55.1012,95.7746985 54.1436,94.1618985 C53.0348,92.2466985 51.422,91.3142985 49.28,91.3142985 L49.28,91.3142985 Z M49.28,93.0782985 C50.8928,93.0782985 52.052,93.9350985 52.7576,95.6738985 C53.2616,96.8834985 53.5388,98.5466985 53.5388,100.663498 C53.5388,102.755098 53.2616,104.418298 52.7576,105.653098 C52.052,107.366698 50.8928,108.248698 49.28,108.248698 C47.6672,108.248698 46.508,107.366698 45.8024,105.653098 C45.2984,104.418298 45.0464,102.755098 45.0464,100.663498 C45.0464,98.5466985 45.2984,96.8834985 45.8024,95.6738985 C46.508,93.9350985 47.6672,93.0782985 49.28,93.0782985 L49.28,93.0782985 Z M75.4628,99.8066985 C74.102,99.8066985 73.0688,100.285498 72.3632,101.293498 C71.708,102.150298 71.4056,103.309498 71.4056,104.745898 C71.4056,106.157098 71.708,107.291098 72.3632,108.198298 C73.0688,109.155898 74.102,109.659898 75.4628,109.659898 C76.7984,109.659898 77.8316,109.155898 78.5624,108.198298 C79.1924,107.316298 79.52,106.157098 79.52,104.745898 C79.52,103.309498 79.1924,102.150298 78.5624,101.293498 C77.8316,100.285498 76.7984,99.8066985 75.4628,99.8066985 L75.4628,99.8066985 Z M73.2956,91.3142985 L63.1904,110.012698 L64.8284,110.012698 L74.9084,91.3142985 L73.2956,91.3142985 Z M62.6612,91.6670985 C61.3004,91.6670985 60.2672,92.1458985 59.5616,93.1538985 C58.9064,94.0106985 58.604,95.1698985 58.604,96.6062985 C58.604,98.0174985 58.9064,99.1514985 59.5616,100.058698 C60.2672,101.016298 61.3004,101.520298 62.6612,101.520298 C63.9968,101.520298 65.03,101.016298 65.7608,100.058698 C66.3908,99.1766985 66.7184,98.0174985 66.7184,96.6062985 C66.7184,95.1698985 66.3908,94.0106985 65.7608,93.1538985 C65.03,92.1458985 63.9968,91.6670985 62.6612,91.6670985 L62.6612,91.6670985 Z M75.4628,101.167498 C76.2188,101.167498 76.7732,101.520298 77.1512,102.251098 C77.4536,102.855898 77.63,103.687498 77.63,104.745898 C77.63,105.779098 77.4536,106.585498 77.1512,107.190298 C76.7732,107.921098 76.2188,108.299098 75.4628,108.299098 C74.6816,108.299098 74.1272,107.921098 73.7744,107.215498 C73.4468,106.610698 73.2956,105.779098 73.2956,104.745898 C73.2956,103.662298 73.4468,102.830698 73.7744,102.225898 C74.1272,101.520298 74.6816,101.167498 75.4628,101.167498 L75.4628,101.167498 Z M62.6612,93.0278985 C63.4172,93.0278985 63.9716,93.3806985 64.3244,94.1114985 C64.652,94.7162985 64.8284,95.5478985 64.8284,96.6062985 C64.8284,97.6394985 64.652,98.4458985 64.3496,99.0506985 C63.9716,99.7814985 63.4172,100.159498 62.6612,100.159498 C61.88,100.159498 61.3256,99.7814985 60.9728,99.0758985 C60.6452,98.4710985 60.494,97.6394985 60.494,96.6062985 C60.494,95.5226985 60.6452,94.6910985 60.9728,94.0862985 C61.3256,93.3806985 61.88,93.0278985 62.6612,93.0278985 L62.6612,93.0278985 Z" id="50%" fill="#FFFFFF" sketch:type="MSShapeGroup"></path>
            <path d="M522.2,208.751269 C577.870303,208.751269 623,163.588845 623,107.878173 C623,52.1674998 577.870303,7.00507614 522.2,7.00507614 C466.529697,7.00507614 421.4,52.1674998 421.4,107.878173 C421.4,163.588845 466.529697,208.751269 522.2,208.751269 Z" id="Oval-76-Copy" opacity="0.898495802" fill="#EDEDED" sketch:type="MSShapeGroup"></path>
            <path d="M615.298327,67.248731 C620.260322,79.2183947 623,92.3501942 623,106.124582 C623,162.029977 577.870303,207.350254 522.2,207.350254 L522.2,106.741808 L615.298327,67.248731 Z" id="Oval-76-Copy-5" fill="url(#linearGradient-1)" sketch:type="MSShapeGroup"></path>
            <path d="M549.5364,123.537649 C547.8228,123.537649 546.4368,124.016449 545.3784,124.999249 C544.2696,125.982049 543.6144,127.342849 543.4632,129.081649 L545.5044,129.081649 C545.6304,127.872049 546.0336,126.939649 546.7392,126.284449 C547.4196,125.629249 548.352,125.326849 549.5616,125.326849 C550.7208,125.326849 551.6532,125.604049 552.3084,126.208849 C552.9132,126.763249 553.2408,127.544449 553.2408,128.552449 C553.2408,129.560449 552.9132,130.341649 552.2832,130.896049 C551.6532,131.425249 550.746,131.702449 549.5364,131.702449 L548.1504,131.702449 L548.1504,133.315249 L549.612,133.315249 C550.872,133.315249 551.8296,133.592449 552.5352,134.197249 C553.2408,134.802049 553.5936,135.633649 553.5936,136.717249 C553.5936,137.775649 553.2156,138.657649 552.51,139.363249 C551.7288,140.094049 550.6956,140.472049 549.4104,140.472049 C548.2764,140.472049 547.344,140.144449 546.588,139.539649 C545.706,138.808849 545.2272,137.725249 545.1768,136.314049 L543.0852,136.314049 C543.2364,138.330049 543.942,139.867249 545.2272,140.925649 C546.3108,141.782449 547.6968,142.236049 549.4104,142.236049 C551.2752,142.236049 552.7872,141.706849 553.9464,140.648449 C555.0804,139.615249 555.66,138.279649 555.66,136.641649 C555.66,135.583249 555.3576,134.701249 554.7528,133.995649 C554.1984,133.290049 553.392,132.786049 552.3336,132.458449 C554.2992,131.803249 555.282,130.442449 555.282,128.426449 C555.282,126.914449 554.7528,125.730049 553.7196,124.848049 C552.6612,123.966049 551.25,123.537649 549.5364,123.537649 L549.5364,123.537649 Z M564.732,123.537649 C562.9176,123.537649 561.4308,124.142449 560.322,125.352049 C559.2132,126.536449 558.6336,128.149249 558.6336,130.165249 L560.7,130.165249 C560.7252,128.577649 561.1032,127.368049 561.8088,126.561649 C562.464,125.704849 563.4216,125.301649 564.6564,125.301649 C565.8156,125.301649 566.748,125.604049 567.4032,126.208849 C568.0584,126.813649 568.386,127.645249 568.386,128.754049 C568.386,129.913249 567.9072,130.996849 567,131.979649 C566.5212,132.483649 565.5888,133.214449 564.1776,134.222449 C562.2624,135.532849 560.9772,136.616449 560.2716,137.422849 C559.062,138.758449 558.4824,140.245249 558.4824,141.883249 L570.4776,141.883249 L570.4776,140.043649 L561.0276,140.043649 C561.3552,138.834049 562.6656,137.448049 564.9588,135.910849 C566.8236,134.650849 568.0584,133.668049 568.6884,133.012849 C569.8476,131.752849 570.4524,130.341649 570.4524,128.779249 C570.4524,127.216849 569.898,125.931649 568.8396,124.974049 C567.756,124.016449 566.3952,123.537649 564.732,123.537649 L564.732,123.537649 Z M590.6628,132.030049 C589.302,132.030049 588.2688,132.508849 587.5632,133.516849 C586.908,134.373649 586.6056,135.532849 586.6056,136.969249 C586.6056,138.380449 586.908,139.514449 587.5632,140.421649 C588.2688,141.379249 589.302,141.883249 590.6628,141.883249 C591.9984,141.883249 593.0316,141.379249 593.7624,140.421649 C594.3924,139.539649 594.72,138.380449 594.72,136.969249 C594.72,135.532849 594.3924,134.373649 593.7624,133.516849 C593.0316,132.508849 591.9984,132.030049 590.6628,132.030049 L590.6628,132.030049 Z M588.4956,123.537649 L578.3904,142.236049 L580.0284,142.236049 L590.1084,123.537649 L588.4956,123.537649 Z M577.8612,123.890449 C576.5004,123.890449 575.4672,124.369249 574.7616,125.377249 C574.1064,126.234049 573.804,127.393249 573.804,128.829649 C573.804,130.240849 574.1064,131.374849 574.7616,132.282049 C575.4672,133.239649 576.5004,133.743649 577.8612,133.743649 C579.1968,133.743649 580.23,133.239649 580.9608,132.282049 C581.5908,131.400049 581.9184,130.240849 581.9184,128.829649 C581.9184,127.393249 581.5908,126.234049 580.9608,125.377249 C580.23,124.369249 579.1968,123.890449 577.8612,123.890449 L577.8612,123.890449 Z M590.6628,133.390849 C591.4188,133.390849 591.9732,133.743649 592.3512,134.474449 C592.6536,135.079249 592.83,135.910849 592.83,136.969249 C592.83,138.002449 592.6536,138.808849 592.3512,139.413649 C591.9732,140.144449 591.4188,140.522449 590.6628,140.522449 C589.8816,140.522449 589.3272,140.144449 588.9744,139.438849 C588.6468,138.834049 588.4956,138.002449 588.4956,136.969249 C588.4956,135.885649 588.6468,135.054049 588.9744,134.449249 C589.3272,133.743649 589.8816,133.390849 590.6628,133.390849 L590.6628,133.390849 Z M577.8612,125.251249 C578.6172,125.251249 579.1716,125.604049 579.5244,126.334849 C579.852,126.939649 580.0284,127.771249 580.0284,128.829649 C580.0284,129.862849 579.852,130.669249 579.5496,131.274049 C579.1716,132.004849 578.6172,132.382849 577.8612,132.382849 C577.08,132.382849 576.5256,132.004849 576.1728,131.299249 C575.8452,130.694449 575.694,129.862849 575.694,128.829649 C575.694,127.746049 575.8452,126.914449 576.1728,126.309649 C576.5256,125.604049 577.08,125.251249 577.8612,125.251249 L577.8612,125.251249 Z" id="32%" fill="#FFFFFF" sketch:type="MSShapeGroup"></path>
            <path d="M465.612,71.7000853 C463.5708,71.7000853 461.958,72.6324853 460.7736,74.5224853 C459.6396,76.3116853 459.0852,78.6552853 459.0852,81.5280853 C459.0852,84.2748853 459.5892,86.4168853 460.6476,87.9540853 C461.7564,89.5668853 463.3944,90.3984853 465.5868,90.3984853 C467.3508,90.3984853 468.7872,89.7936853 469.9464,88.6344853 C471.0804,87.4752853 471.66,85.9884853 471.66,84.2244853 C471.66,82.4604853 471.1308,81.0492853 470.0976,79.9404853 C469.0392,78.8316853 467.6532,78.2772853 465.9396,78.2772853 C464.8812,78.2772853 463.9488,78.5292853 463.1424,79.0584853 C462.2856,79.5624853 461.6556,80.2932853 461.202,81.2256853 L461.1012,81.2256853 C461.076,80.8980853 461.076,80.6712853 461.076,80.5704853 C461.076,78.5292853 461.454,76.8408853 462.2604,75.5304853 C463.0668,74.1192853 464.1756,73.4388853 465.5868,73.4388853 C467.6784,73.4388853 468.9132,74.4468853 469.3164,76.5132853 L471.3576,76.5132853 C470.8536,73.2876853 468.9384,71.7000853 465.612,71.7000853 L465.612,71.7000853 Z M465.5364,79.9908853 C466.7712,79.9908853 467.754,80.3688853 468.51,81.1752853 C469.2408,81.9312853 469.6188,82.9392853 469.6188,84.2244853 C469.6188,85.5096853 469.2408,86.5680853 468.4848,87.4248853 C467.7288,88.2312853 466.746,88.6596853 465.5364,88.6596853 C464.2764,88.6596853 463.2936,88.2312853 462.5376,87.3744853 C461.7816,86.5680853 461.4288,85.5348853 461.4288,84.2748853 C461.4288,83.0148853 461.8068,82.0068853 462.588,81.2004853 C463.3692,80.3940853 464.352,79.9908853 465.5364,79.9908853 L465.5364,79.9908853 Z M480.48,71.7000853 C478.59,71.7000853 477.1284,72.1788853 476.07,73.1616853 C475.0872,74.0436853 474.6084,75.1524853 474.6084,76.4628853 C474.6084,77.4204853 474.8352,78.2268853 475.2888,78.8820853 C475.7676,79.5876853 476.4732,80.1168853 477.4308,80.4444853 L477.4308,80.4948853 C476.4732,80.7216853 475.692,81.2508853 475.0368,82.0572853 C474.3312,82.9140853 473.9784,83.9220853 473.9784,85.0812853 C473.9784,86.6688853 474.5328,87.9540853 475.6416,88.9116853 C476.7756,89.8944853 478.3884,90.3984853 480.48,90.3984853 C482.5464,90.3984853 484.1592,89.8944853 485.3184,88.9116853 C486.4272,87.9540853 486.9816,86.6688853 486.9816,85.0812853 C486.9816,83.9220853 486.6288,82.9140853 485.9232,82.0572853 C485.268,81.2508853 484.4616,80.7216853 483.5292,80.4948853 L483.5292,80.4444853 C484.4616,80.1168853 485.1672,79.5876853 485.6712,78.8820853 C486.1248,78.2268853 486.3516,77.4204853 486.3516,76.4628853 C486.3516,75.1524853 485.8476,74.0436853 484.89,73.1616853 C483.8316,72.1788853 482.3448,71.7000853 480.48,71.7000853 L480.48,71.7000853 Z M480.48,73.3884853 C481.74,73.3884853 482.748,73.7160853 483.4788,74.3712853 C484.0836,74.9256853 484.4112,75.6564853 484.4112,76.5384853 C484.4112,77.4456853 484.134,78.2016853 483.5796,78.7560853 C482.8992,79.4112853 481.866,79.7640853 480.48,79.7640853 C479.0688,79.7640853 478.0356,79.4112853 477.3804,78.7560853 C476.826,78.2016853 476.5488,77.4456853 476.5488,76.5384853 C476.5488,75.6564853 476.8512,74.9256853 477.4812,74.3712853 C478.1868,73.7160853 479.1948,73.3884853 480.48,73.3884853 L480.48,73.3884853 Z M480.48,81.3768853 C481.9164,81.3768853 483.0504,81.7296853 483.8568,82.4604853 C484.5624,83.1156853 484.9404,83.9976853 484.9404,85.0812853 C484.9404,86.1396853 484.5624,86.9964853 483.8568,87.6516853 C483.0504,88.3572853 481.9416,88.7100853 480.48,88.7100853 C479.0184,88.7100853 477.8844,88.3572853 477.1284,87.6768853 C476.3724,87.0216853 476.0196,86.1396853 476.0196,85.0812853 C476.0196,83.9976853 476.3724,83.1156853 477.1284,82.4604853 C477.9096,81.7296853 479.0184,81.3768853 480.48,81.3768853 L480.48,81.3768853 Z M506.6628,80.1924853 C505.302,80.1924853 504.2688,80.6712853 503.5632,81.6792853 C502.908,82.5360853 502.6056,83.6952853 502.6056,85.1316853 C502.6056,86.5428853 502.908,87.6768853 503.5632,88.5840853 C504.2688,89.5416853 505.302,90.0456853 506.6628,90.0456853 C507.9984,90.0456853 509.0316,89.5416853 509.7624,88.5840853 C510.3924,87.7020853 510.72,86.5428853 510.72,85.1316853 C510.72,83.6952853 510.3924,82.5360853 509.7624,81.6792853 C509.0316,80.6712853 507.9984,80.1924853 506.6628,80.1924853 L506.6628,80.1924853 Z M504.4956,71.7000853 L494.3904,90.3984853 L496.0284,90.3984853 L506.1084,71.7000853 L504.4956,71.7000853 Z M493.8612,72.0528853 C492.5004,72.0528853 491.4672,72.5316853 490.7616,73.5396853 C490.1064,74.3964853 489.804,75.5556853 489.804,76.9920853 C489.804,78.4032853 490.1064,79.5372853 490.7616,80.4444853 C491.4672,81.4020853 492.5004,81.9060853 493.8612,81.9060853 C495.1968,81.9060853 496.23,81.4020853 496.9608,80.4444853 C497.5908,79.5624853 497.9184,78.4032853 497.9184,76.9920853 C497.9184,75.5556853 497.5908,74.3964853 496.9608,73.5396853 C496.23,72.5316853 495.1968,72.0528853 493.8612,72.0528853 L493.8612,72.0528853 Z M506.6628,81.5532853 C507.4188,81.5532853 507.9732,81.9060853 508.3512,82.6368853 C508.6536,83.2416853 508.83,84.0732853 508.83,85.1316853 C508.83,86.1648853 508.6536,86.9712853 508.3512,87.5760853 C507.9732,88.3068853 507.4188,88.6848853 506.6628,88.6848853 C505.8816,88.6848853 505.3272,88.3068853 504.9744,87.6012853 C504.6468,86.9964853 504.4956,86.1648853 504.4956,85.1316853 C504.4956,84.0480853 504.6468,83.2164853 504.9744,82.6116853 C505.3272,81.9060853 505.8816,81.5532853 506.6628,81.5532853 L506.6628,81.5532853 Z M493.8612,73.4136853 C494.6172,73.4136853 495.1716,73.7664853 495.5244,74.4972853 C495.852,75.1020853 496.0284,75.9336853 496.0284,76.9920853 C496.0284,78.0252853 495.852,78.8316853 495.5496,79.4364853 C495.1716,80.1672853 494.6172,80.5452853 493.8612,80.5452853 C493.08,80.5452853 492.5256,80.1672853 492.1728,79.4616853 C491.8452,78.8568853 491.694,78.0252853 491.694,76.9920853 C491.694,75.9084853 491.8452,75.0768853 492.1728,74.4720853 C492.5256,73.7664853 493.08,73.4136853 493.8612,73.4136853 L493.8612,73.4136853 Z" id="68%" fill="#000000" sketch:type="MSShapeGroup"></path>
            <ellipse id="Oval-169" stroke="#6C6C6C" stroke-width="2.8" sketch:type="MSShapeGroup" cx="313.6" cy="63.0456853" rx="16.8" ry="16.8121827"></ellipse>
            <path d="M312.951953,52.2233899 L312.951953,64.2821656 L322.138905,64.2821656" id="Path-534" stroke="#6C6C6C" stroke-width="1.4" sketch:type="MSShapeGroup"></path>
            <path d="M320.711364,63.3454658 L330.4,63.3454658 L316.145455,36.4263959 L301,63.3454658 L310.688636,63.3454658 L310.688636,75.5814067 L320.711364,75.5814067 L320.711364,63.3454658 Z M310.688636,84.6480383 L320.711364,84.6480383 L320.711364,95.7707091 L310.688636,95.7707091 L310.688636,84.6480383 Z M310.688636,104.837341 L320.711364,104.837341 L320.711364,115.960012 L310.688636,115.960012 L310.688636,104.837341 Z M310.688636,125.026643 L320.711364,125.026643 L320.711364,136.149314 L310.688636,136.149314 L310.688636,125.026643 Z M310.688636,145.215946 L320.711364,145.215946 L320.711364,156.338616 L310.688636,156.338616 L310.688636,145.215946 Z M310.688636,165.405248 L320.711364,165.405248 L320.711364,176.527919 L310.688636,176.527919 L310.688636,165.405248 Z" id="Triangle-6-Copy-5" fill="url(#linearGradient-2)" sketch:type="MSShapeGroup" transform="translate(315.700000, 106.477157) rotate(-270.000000) translate(-315.700000, -106.477157) "></path>
            <polygon id="Triangle-6-Copy-4" fill="#54B0FF" sketch:type="MSShapeGroup" transform="translate(196.000000, 221.360406) rotate(-51.000000) translate(-196.000000, -221.360406) " points="196.593939 201.746193 215.6 240.974619 176.4 240.974619 "></polygon>
            <path d="M325.541069,264.155882 C289.688576,265.170107 257.555927,256.410095 226.208125,236.262372 C215.605377,229.447819 205.267231,221.232059 195.21591,211.553299 L189,220.280878 C199.515765,230.406867 210.356045,239.021674 221.49359,246.179949 C254.553079,267.427802 289.589755,275.53374 325.606638,272.627544 C354.004461,270.33613 381.563073,261.365438 407.421384,247.848677 C418.009892,242.313808 427.592497,236.381847 436.008547,230.442483 C438.964449,228.356448 441.567133,226.41513 443.796353,224.667083 C445.15222,223.603878 446.093546,222.831395 446.6,222.398145 L445.623635,220.956364 C445.623635,220.956364 390.471151,262.319087 325.541069,264.155882 Z" id="Shape" fill="url(#linearGradient-3)" sketch:type="MSShapeGroup" transform="translate(317.800000, 242.375635) rotate(-1.000000) translate(-317.800000, -242.375635) "></path>
            <path d="M291.722739,223.320173 L282.705926,221.331661 L282.464959,222.369664 L291.481771,224.358175 L291.722739,223.320173 L291.722739,223.320173 Z M288.721305,238.928424 C288.62282,237.209369 288.192819,234.13208 287.738816,231.801173 L286.7096,231.840921 C286.94645,233.178279 287.206105,234.738896 287.350537,236.152864 L280.476825,235.970599 C282.008534,233.980618 283.6482,231.311265 284.961034,228.763815 L290.640916,230.01642 L290.881883,228.978418 L280.539764,226.697632 L280.298797,227.735634 L283.777725,228.502855 C282.480095,231.199144 280.682367,233.906383 280.14531,234.612363 C279.586834,235.410611 279.071197,236.024325 278.718451,236.043523 C278.801545,236.328572 278.857004,236.946994 278.869099,237.216385 L278.863745,237.239452 C279.401326,237.067035 280.206837,237.026449 287.462316,237.171668 C287.543688,237.892795 287.593792,238.534283 287.617983,239.073066 L288.721305,238.928424 L288.721305,238.928424 Z M301.813557,229.255428 L296.536,228.091548 C297.026922,226.405488 297.423179,224.69855 297.832392,223.042965 L296.720082,222.797663 C296.334535,224.458467 295.914612,226.160186 295.447356,227.851466 L291.660768,227.016395 L291.409091,228.100531 L295.148347,228.925163 C293.593012,234.23186 291.354467,239.266648 287.266475,241.444559 C287.542006,241.650809 287.911341,242.095974 288.018101,242.386242 C292.306993,239.985913 294.593732,234.743525 296.236991,229.165246 L300.44957,230.094262 C298.078055,238.809615 296.994807,241.868401 296.142488,242.432113 C295.85988,242.685008 295.565176,242.668511 295.120873,242.54628 C294.64755,242.441896 293.274912,242.139183 291.834383,241.70026 C291.972411,242.070166 291.994355,242.511463 291.937699,242.862684 C293.217919,243.242006 294.53787,243.557347 295.25321,243.690856 C295.97926,243.778232 296.43738,243.733777 296.981177,243.320254 C298.034396,242.534124 299.081022,239.418765 301.658267,229.924363 L301.813557,229.255428 L301.813557,229.255428 Z M315.451084,238.493778 L315.853768,234.968084 L322.220248,235.658856 L321.817564,239.18455 L315.451084,238.493778 L315.451084,238.493778 Z M308.498554,234.170034 L314.720342,234.845106 L314.317658,238.370799 L308.09587,237.695727 L308.498554,234.170034 L308.498554,234.170034 Z M315.227723,230.402732 L314.838462,233.810903 L308.616675,233.13583 L309.005936,229.72766 L315.227723,230.402732 L315.227723,230.402732 Z M322.727629,231.216482 L322.338368,234.624653 L315.971888,233.933881 L316.361149,230.525711 L322.727629,231.216482 L322.727629,231.216482 Z M325.941307,239.631981 L322.950991,239.307528 L323.981861,230.281753 L316.481955,229.468003 L316.796048,226.717962 L326.466345,227.767202 L326.589835,226.68599 L306.332853,224.488079 L306.209363,225.569292 L315.662621,226.594983 L315.348528,229.345024 L307.993314,228.546974 L306.962444,237.572749 L304.044474,237.256145 L303.923669,238.313853 L306.841639,238.630457 L306.16513,244.553622 L307.298557,244.6766 L307.975065,238.753435 L321.696759,240.242258 L321.213539,244.47309 C321.167901,244.872668 321.009786,244.974492 320.573023,244.950899 C320.13626,244.927305 318.590186,244.78335 316.859243,244.547948 C317.014583,244.897946 317.153815,245.38897 317.212693,245.728501 C319.286622,245.953526 320.567426,246.068699 321.288251,245.956542 C321.963529,245.815647 322.247636,245.465739 322.346965,244.596068 L322.830185,240.365236 L325.820502,240.689689 L325.941307,239.631981 L325.941307,239.631981 Z M351.403102,235.499083 L341.163788,235.571597 L341.097499,226.679502 L350.002306,226.616439 L349.99402,225.504927 L331.068273,225.638958 L331.076559,226.75047 L339.932838,226.68775 L339.999127,235.579845 L329.905395,235.651329 L329.913858,236.78649 L340.007589,236.715006 L340.071762,245.323311 L341.236424,245.315063 L341.172251,236.706758 L351.411565,236.634244 L351.403102,235.499083 L351.403102,235.499083 Z M332.933123,228.416503 C333.965953,230.253923 335.027455,232.6824 335.426606,234.1459 L336.515479,233.736132 C336.116504,232.296281 335.006828,229.915445 333.94991,228.101846 L332.933123,228.416503 L332.933123,228.416503 Z M345.205966,234.218546 C346.213762,232.697781 347.432703,230.205853 348.34027,228.260089 L347.124084,227.866645 C346.458097,229.668795 345.21595,232.30279 344.208507,233.870854 L345.205966,234.218546 L345.205966,234.218546 Z M374.590461,221.00104 L369.664435,221.674192 L369.812671,222.704704 L374.738697,222.031553 L374.590461,221.00104 L374.590461,221.00104 Z M356.919843,221.648562 C356.386733,223.393091 355.179906,225.564021 354.002264,227.086172 C354.22482,227.270689 354.618504,227.622871 354.817031,227.810672 C356.080684,226.205124 357.360045,223.857114 358.082469,221.895666 L356.919843,221.648562 L356.919843,221.648562 Z M358.150135,226.113378 C357.405265,228.770446 356.052477,231.629993 354.568297,233.576131 C354.866311,233.774218 355.318161,234.190095 355.496027,234.4046 C356.061042,233.563194 356.657271,232.598116 357.171305,231.572628 L358.818745,243.025371 L359.900068,242.877606 L358.013429,229.76199 C358.486588,228.622681 358.92898,227.439815 359.254594,226.296787 L358.150135,226.113378 L358.150135,226.113378 Z M365.572498,223.546825 C365.405429,224.429375 365.111029,225.448732 364.803599,226.207176 L361.247248,226.693159 C361.685379,225.821329 361.993255,224.895656 362.28047,223.996687 L365.572498,223.546825 L365.572498,223.546825 Z M368.271749,229.19601 L365.700603,229.547362 L365.346859,227.088184 L367.918004,226.736832 L368.271749,229.19601 L368.271749,229.19601 Z M368.760254,232.592018 L366.189108,232.94337 L365.828625,230.43735 L368.399771,230.085998 L368.760254,232.592018 L368.760254,232.592018 Z M361.976047,230.05633 L361.622302,227.597152 L364.385683,227.21953 L364.739428,229.678708 L361.976047,230.05633 L361.976047,230.05633 Z M364.86745,230.568697 L365.227933,233.074716 L362.464552,233.452338 L362.104069,230.946318 L364.86745,230.568697 L364.86745,230.568697 Z M361.614107,234.523798 L369.880219,233.394217 L368.768449,225.665372 L365.908951,226.056128 C366.309576,225.093899 366.673142,223.874042 366.885347,222.794274 L366.097085,222.424369 L365.938986,222.517617 L362.574871,222.97733 C362.7516,222.33227 362.876902,221.670357 362.988281,221.08199 L361.859346,221.069094 C361.572374,223.162085 360.75497,225.996233 359.139644,228.222985 C359.444841,228.300685 359.842341,228.509058 360.092296,228.713713 C360.271502,228.426532 360.474736,228.136067 360.650573,227.825465 L361.614107,234.523798 L361.614107,234.523798 Z M365.327217,234.446254 C365.325878,234.947941 365.321169,235.426206 365.268402,235.91104 L360.99117,236.495532 L361.132668,237.479203 L365.121548,236.934115 C364.714875,238.876296 363.646826,240.478996 361.293083,241.66036 C361.53293,241.794752 361.875187,242.13008 362.077083,242.341302 C364.379399,241.143084 365.546934,239.550671 366.073753,237.592071 C367.701259,238.515963 369.540766,239.72134 370.495895,240.569945 L371.132998,239.718688 C370.129811,238.876649 368.214846,237.657704 366.539282,236.740379 L371.00875,236.129617 L370.867252,235.145946 L366.373755,235.759991 C366.426522,235.275158 366.43123,234.796892 366.432569,234.295205 L365.327217,234.446254 L365.327217,234.446254 Z M375.848395,226.680017 L369.889105,227.494365 L370.04071,228.548299 L372.732002,228.180528 L374.339015,239.352223 C374.376074,239.609851 374.314092,239.689964 374.029109,239.752789 C373.768154,239.81233 372.903096,239.930542 371.866463,240.048319 C372.057805,240.356507 372.286653,240.755095 372.378509,241.052997 C373.676096,240.87568 374.513756,240.737331 374.967392,240.484291 C375.396999,240.234536 375.518038,239.88366 375.420337,239.204458 L373.813325,228.032763 L376,227.73395 L375.848395,226.680017 Z M267.865854,217.16761 C268.563965,216.426412 269.394858,215.454638 270.109525,214.593933 L269.010557,214 C268.442201,214.809758 267.525168,215.952723 266.787558,216.805728 L261.074886,214.888521 L255,232.08439 L256.101238,232.453972 L256.583121,231.08993 L269.614437,235.463318 L269.187852,236.67083 L270.312033,237.048112 L276.331621,220.008772 L267.865854,217.16761 Z M274.836154,220.682474 L273.437903,224.64043 L260.406586,220.267043 L261.804837,216.309086 L274.836154,220.682474 L274.836154,220.682474 Z M273.074516,225.669052 L271.715763,229.515202 L258.684447,225.141814 L260.043199,221.295664 L273.074516,225.669052 L273.074516,225.669052 Z M256.938609,230.08367 L258.32106,226.170436 L271.352376,230.543824 L269.969925,234.457058 L256.938609,230.08367 L256.938609,230.08367 Z" id="自动再平衡" fill="#00A1FF" sketch:type="MSShapeGroup"></path>
        </g>
    </g>
</svg>