<?xml version="1.0" encoding="UTF-8" standalone="no"?>
<svg width="601px" height="509px" viewBox="0 0 601 509" version="1.1" xmlns="http://www.w3.org/2000/svg" xmlns:xlink="http://www.w3.org/1999/xlink" xmlns:sketch="http://www.bohemiancoding.com/sketch/ns">
    <!-- Generator: Sketch 3.4.3 (16618) - http://www.bohemiancoding.com/sketch -->
    <title>chart_automation</title>
    <desc>Created with Sketch.</desc>
    <defs>
        <filter x="-50%" y="-50%" width="200%" height="200%" filterUnits="objectBoundingBox" id="filter-1">
            <feOffset dx="0" dy="1" in="SourceAlpha" result="shadowOffsetOuter1"></feOffset>
            <feGaussianBlur stdDeviation="1.5" in="shadowOffsetOuter1" result="shadowBlurOuter1"></feGaussianBlur>
            <feColorMatrix values="0 0 0 0 0   0 0 0 0 0   0 0 0 0 0  0 0 0 0.35 0" in="shadowBlurOuter1" type="matrix" result="shadowMatrixOuter1"></feColorMatrix>
            <feMerge>
                <feMergeNode in="shadowMatrixOuter1"></feMergeNode>
                <feMergeNode in="SourceGraphic"></feMergeNode>
            </feMerge>
        </filter>
        <filter x="-50%" y="-50%" width="200%" height="200%" filterUnits="objectBoundingBox" id="filter-2">
            <feOffset dx="0" dy="3" in="SourceAlpha" result="shadowOffsetOuter1"></feOffset>
            <feGaussianBlur stdDeviation="2" in="shadowOffsetOuter1" result="shadowBlurOuter1"></feGaussianBlur>
            <feColorMatrix values="0 0 0 0 0   0 0 0 0 0   0 0 0 0 0  0 0 0 0.252 0" in="shadowBlurOuter1" type="matrix" result="shadowMatrixOuter1"></feColorMatrix>
            <feMerge>
                <feMergeNode in="shadowMatrixOuter1"></feMergeNode>
                <feMergeNode in="SourceGraphic"></feMergeNode>
            </feMerge>
        </filter>
        <filter x="-50%" y="-50%" width="200%" height="200%" filterUnits="objectBoundingBox" id="filter-3">
            <feOffset dx="0" dy="3" in="SourceAlpha" result="shadowOffsetOuter1"></feOffset>
            <feGaussianBlur stdDeviation="2" in="shadowOffsetOuter1" result="shadowBlurOuter1"></feGaussianBlur>
            <feColorMatrix values="0 0 0 0 0   0 0 0 0 0   0 0 0 0 0  0 0 0 0.252 0" in="shadowBlurOuter1" type="matrix" result="shadowMatrixOuter1"></feColorMatrix>
            <feMerge>
                <feMergeNode in="shadowMatrixOuter1"></feMergeNode>
                <feMergeNode in="SourceGraphic"></feMergeNode>
            </feMerge>
        </filter>
        <filter x="-50%" y="-50%" width="200%" height="200%" filterUnits="objectBoundingBox" id="filter-4">
            <feOffset dx="0" dy="3" in="SourceAlpha" result="shadowOffsetOuter1"></feOffset>
            <feGaussianBlur stdDeviation="2" in="shadowOffsetOuter1" result="shadowBlurOuter1"></feGaussianBlur>
            <feColorMatrix values="0 0 0 0 0   0 0 0 0 0   0 0 0 0 0  0 0 0 0.252 0" in="shadowBlurOuter1" type="matrix" result="shadowMatrixOuter1"></feColorMatrix>
            <feMerge>
                <feMergeNode in="shadowMatrixOuter1"></feMergeNode>
                <feMergeNode in="SourceGraphic"></feMergeNode>
            </feMerge>
        </filter>
        <filter x="-50%" y="-50%" width="200%" height="200%" filterUnits="objectBoundingBox" id="filter-5">
            <feOffset dx="0" dy="3" in="SourceAlpha" result="shadowOffsetOuter1"></feOffset>
            <feGaussianBlur stdDeviation="2" in="shadowOffsetOuter1" result="shadowBlurOuter1"></feGaussianBlur>
            <feColorMatrix values="0 0 0 0 0   0 0 0 0 0   0 0 0 0 0  0 0 0 0.252 0" in="shadowBlurOuter1" type="matrix" result="shadowMatrixOuter1"></feColorMatrix>
            <feMerge>
                <feMergeNode in="shadowMatrixOuter1"></feMergeNode>
                <feMergeNode in="SourceGraphic"></feMergeNode>
            </feMerge>
        </filter>
        <filter x="-50%" y="-50%" width="200%" height="200%" filterUnits="objectBoundingBox" id="filter-6">
            <feOffset dx="0" dy="3" in="SourceAlpha" result="shadowOffsetOuter1"></feOffset>
            <feGaussianBlur stdDeviation="2" in="shadowOffsetOuter1" result="shadowBlurOuter1"></feGaussianBlur>
            <feColorMatrix values="0 0 0 0 0   0 0 0 0 0   0 0 0 0 0  0 0 0 0.252 0" in="shadowBlurOuter1" type="matrix" result="shadowMatrixOuter1"></feColorMatrix>
            <feMerge>
                <feMergeNode in="shadowMatrixOuter1"></feMergeNode>
                <feMergeNode in="SourceGraphic"></feMergeNode>
            </feMerge>
        </filter>
        <filter x="-50%" y="-50%" width="200%" height="200%" filterUnits="objectBoundingBox" id="filter-7">
            <feOffset dx="0" dy="3" in="SourceAlpha" result="shadowOffsetOuter1"></feOffset>
            <feGaussianBlur stdDeviation="2" in="shadowOffsetOuter1" result="shadowBlurOuter1"></feGaussianBlur>
            <feColorMatrix values="0 0 0 0 0   0 0 0 0 0   0 0 0 0 0  0 0 0 0.252 0" in="shadowBlurOuter1" type="matrix" result="shadowMatrixOuter1"></feColorMatrix>
            <feMerge>
                <feMergeNode in="shadowMatrixOuter1"></feMergeNode>
                <feMergeNode in="SourceGraphic"></feMergeNode>
            </feMerge>
        </filter>
    </defs>
    <g id="Page-1" stroke="none" stroke-width="1" fill="none" fill-rule="evenodd" sketch:type="MSPage">
        <g id="chart_automation" sketch:type="MSLayerGroup" transform="translate(1.000000, -1.000000)">
            <g id="line" transform="translate(0.000000, 53.682171)" stroke="#000000" stroke-opacity="0.3" stroke-width="1.3986014" sketch:type="MSShapeGroup">
                <rect id="Rectangle-237" x="0" y="0" width="600" height="334.105943"></rect>
                <path d="M118.181818,2.29714366 L118.181818,332.487567" id="Line-Copy-19" stroke-linecap="square"></path>
                <path d="M238.461538,2.29714366 L238.461538,332.487567" id="Line-Copy-21" stroke-linecap="square"></path>
                <path d="M358.741259,2.29714366 L358.741259,332.487567" id="Line-Copy-22" stroke-linecap="square"></path>
                <path d="M479.020979,2.29714366 L479.020979,332.487567" id="Line-Copy-25" stroke-linecap="square"></path>
            </g>
            <path d="M1.3986014,273.157623 L11.775842,256.002044 L32.2449653,260.777156 L46.2428774,248.480747 L65.2278625,266.305191 L88.8542364,257.278049 L107.53041,255.023245 L122.141336,238.209302 L148.251748,248.480747 M430.769231,144.547804 L456.936582,126.115811 L480.695719,125.102971 L512.058336,129.379846 L532.304971,139.927626 L548.423606,123.14455 L564.54687,128.663737 L598.601399,112.395349" id="Path-374" stroke="#666666" stroke-width="4.1958042" sketch:type="MSShapeGroup"></path>
            <ellipse id="Oval-178-Copy-4" fill="#A7FFFC" sketch:type="MSShapeGroup" cx="45.4545455" cy="250.091731" rx="4.8951049" ry="4.89276486"></ellipse>
            <ellipse id="Oval-178-Copy-13" fill="#A7FFFC" sketch:type="MSShapeGroup" cx="550.34965" cy="124.277778" rx="4.8951049" ry="4.89276486"></ellipse>
            <ellipse id="Oval-178-Copy-9" fill="#A7FFFC" sketch:type="MSShapeGroup" cx="372.727273" cy="226.326873" rx="4.8951049" ry="4.89276486"></ellipse>
            <ellipse id="Oval-178-Copy-11" fill="#49AEFF" sketch:type="MSShapeGroup" cx="459.440559" cy="125.675711" rx="4.8951049" ry="4.89276486"></ellipse>
            <ellipse id="Oval-178-Copy-2" fill="#5DD9FF" sketch:type="MSShapeGroup" cx="17.4825175" cy="257.081395" rx="4.8951049" ry="4.89276486"></ellipse>
            <ellipse id="Oval-178-Copy-12" fill="#5DD9FF" sketch:type="MSShapeGroup" cx="518.181818" cy="132.665375" rx="4.8951049" ry="4.89276486"></ellipse>
            <ellipse id="Oval-178-Copy-8" fill="#5DD9FF" sketch:type="MSShapeGroup" cx="293.006993" cy="247.295866" rx="4.8951049" ry="4.89276486"></ellipse>
            <ellipse id="Oval-178-Copy-7" fill="#5DD9FF" sketch:type="MSShapeGroup" cx="188.111888" cy="238.908269" rx="4.8951049" ry="4.89276486"></ellipse>
            <ellipse id="Oval-178-Copy-3" fill="#49AEFF" sketch:type="MSShapeGroup" cx="31.4685315" cy="261.275194" rx="4.8951049" ry="4.89276486"></ellipse>
            <ellipse id="Oval-178-Copy-14" fill="#49AEFF" sketch:type="MSShapeGroup" cx="565.734266" cy="127.073643" rx="4.8951049" ry="4.89276486"></ellipse>
            <ellipse id="Oval-178-Copy-10" fill="#49AEFF" sketch:type="MSShapeGroup" cx="249.65035" cy="233.316537" rx="4.8951049" ry="4.89276486"></ellipse>
            <ellipse id="Oval-178-Copy-5" fill="#49AEFF" sketch:type="MSShapeGroup" cx="66.4335664" cy="264.071059" rx="4.8951049" ry="4.89276486"></ellipse>
            <ellipse id="Oval-178-Copy-6" fill="#49AEFF" sketch:type="MSShapeGroup" cx="125.174825" cy="240.306202" rx="4.8951049" ry="4.89276486"></ellipse>
            <path d="M42.9818182,411.187752 L42.9818182,412.463277 L51.8657343,412.463277 L45.779021,427.165375 L47.2559441,427.165375 L53.2979021,412.329011 L53.2979021,411.187752 L42.9818182,411.187752 Z M61.1076923,416.558382 L71.1104895,416.558382 L71.1104895,420.966773 L61.1076923,420.966773 L61.1076923,416.558382 Z M71.1104895,415.417123 L61.1076923,415.417123 L61.1076923,411.098242 L71.1104895,411.098242 L71.1104895,415.417123 Z M61.0405594,422.108032 L71.1104895,422.108032 L71.1104895,426.963976 C71.1104895,427.657682 70.8195804,428.015724 70.2377622,428.015724 C69.365035,428.015724 68.4251748,427.993347 67.3958042,427.970969 L67.7090909,429.134605 L70.6405594,429.134605 C71.7594406,429.134605 72.3188811,428.552787 72.3188811,427.411529 L72.3188811,409.934605 L59.9216783,409.934605 L59.9216783,420.787752 C59.8769231,423.920619 59.0937063,426.494046 57.5496503,428.508032 L58.4895105,429.358382 C59.9664336,427.456284 60.8167832,425.039501 61.0405594,422.108032 L61.0405594,422.108032 Z" id="7月" fill-opacity="0.6" fill="#4F4F4F" sketch:type="MSShapeGroup"></path>
            <path d="M169.230769,410.874466 C167.574825,410.874466 166.299301,411.29964 165.404196,412.14999 C164.553846,412.910829 164.151049,413.850689 164.151049,415.014326 C164.151049,415.864675 164.352448,416.603137 164.8,417.22971 C165.247552,417.856284 165.918881,418.326214 166.791608,418.594745 L166.791608,418.684256 C165.896503,418.863277 165.135664,419.333207 164.531469,420.094046 C163.904895,420.854885 163.591608,421.772368 163.591608,422.801738 C163.591608,424.189151 164.061538,425.308032 165.023776,426.158382 C166.008392,427.031109 167.395804,427.478661 169.230769,427.478661 C171.043357,427.478661 172.453147,427.031109 173.437762,426.158382 C174.377622,425.308032 174.86993,424.189151 174.86993,422.801738 C174.86993,421.772368 174.556643,420.854885 173.93007,420.094046 C173.303497,419.333207 172.565035,418.863277 171.692308,418.684256 L171.692308,418.594745 C172.542657,418.326214 173.213986,417.856284 173.661538,417.22971 C174.086713,416.603137 174.31049,415.864675 174.31049,415.014326 C174.31049,413.850689 173.885315,412.910829 173.057343,412.14999 C172.13986,411.29964 170.864336,410.874466 169.230769,410.874466 L169.230769,410.874466 Z M169.230769,412.038102 C170.461538,412.038102 171.423776,412.351389 172.117483,412.977962 C172.699301,413.515025 172.99021,414.208731 172.99021,415.059081 C172.99021,415.931808 172.721678,416.647892 172.184615,417.184955 C171.513287,417.811529 170.528671,418.124815 169.230769,418.124815 C167.91049,418.124815 166.925874,417.811529 166.276923,417.184955 C165.73986,416.647892 165.471329,415.931808 165.471329,415.059081 C165.471329,414.208731 165.762238,413.515025 166.344056,412.977962 C167.015385,412.351389 167.977622,412.038102 169.230769,412.038102 L169.230769,412.038102 Z M169.230769,419.243696 C170.618182,419.243696 171.692308,419.579361 172.453147,420.295445 C173.169231,420.922018 173.527273,421.772368 173.527273,422.801738 C173.527273,423.831109 173.169231,424.681459 172.497902,425.308032 C171.737063,425.979361 170.640559,426.337403 169.230769,426.337403 C167.798601,426.337403 166.724476,425.979361 165.986014,425.308032 C165.26993,424.681459 164.934266,423.831109 164.934266,422.801738 C164.934266,421.772368 165.292308,420.922018 166.008392,420.295445 C166.769231,419.579361 167.843357,419.243696 169.230769,419.243696 L169.230769,419.243696 Z M182.724476,416.558382 L192.727273,416.558382 L192.727273,420.966773 L182.724476,420.966773 L182.724476,416.558382 Z M192.727273,415.417123 L182.724476,415.417123 L182.724476,411.098242 L192.727273,411.098242 L192.727273,415.417123 Z M182.657343,422.108032 L192.727273,422.108032 L192.727273,426.963976 C192.727273,427.657682 192.436364,428.015724 191.854545,428.015724 C190.981818,428.015724 190.041958,427.993347 189.012587,427.970969 L189.325874,429.134605 L192.257343,429.134605 C193.376224,429.134605 193.935664,428.552787 193.935664,427.411529 L193.935664,409.934605 L181.538462,409.934605 L181.538462,420.787752 C181.493706,423.920619 180.71049,426.494046 179.166434,428.508032 L180.106294,429.358382 C181.583217,427.456284 182.433566,425.039501 182.657343,422.108032 L182.657343,422.108032 Z" id="7月" fill-opacity="0.6" fill="#4F4F4F" sketch:type="MSShapeGroup"></path>
            <path d="M287.91049,410.874466 C286.388811,410.874466 285.135664,411.389151 284.151049,412.418522 C283.166434,413.447892 282.674126,414.745794 282.674126,416.312228 C282.674126,417.856284 283.121678,419.109431 284.039161,420.071668 C284.956643,421.056284 286.187413,421.548591 287.709091,421.548591 C288.716084,421.548591 289.611189,421.28006 290.394406,420.742997 C291.177622,420.183556 291.759441,419.445095 292.13986,418.527612 L292.229371,418.527612 L292.229371,419.310829 C292.229371,421.302438 291.848951,422.958382 291.11049,424.256284 C290.327273,425.598941 289.253147,426.292647 287.91049,426.292647 C285.874126,426.292647 284.665734,425.285654 284.307692,423.271668 L282.942657,423.271668 C283.39021,426.068871 285.023776,427.478661 287.888112,427.478661 C289.678322,427.478661 291.11049,426.628312 292.13986,424.927612 C293.07972,423.316424 293.572028,421.28006 293.572028,418.773766 C293.572028,416.312228 293.124476,414.41013 292.251748,413.067473 C291.28951,411.59055 289.834965,410.874466 287.91049,410.874466 L287.91049,410.874466 Z M287.955245,412.06048 C289.163636,412.06048 290.125874,412.485654 290.886713,413.336004 C291.558042,414.141598 291.916084,415.126214 291.916084,416.28985 C291.916084,417.453487 291.513287,418.415724 290.752448,419.198941 C289.969231,419.982158 289.029371,420.384955 287.932867,420.384955 C286.746853,420.384955 285.806993,420.004536 285.090909,419.266074 C284.374825,418.505235 284.039161,417.520619 284.039161,416.312228 C284.039161,415.081459 284.397203,414.074466 285.113287,413.268871 C285.829371,412.463277 286.769231,412.06048 287.955245,412.06048 L287.955245,412.06048 Z M301.605594,416.558382 L311.608392,416.558382 L311.608392,420.966773 L301.605594,420.966773 L301.605594,416.558382 Z M311.608392,415.417123 L301.605594,415.417123 L301.605594,411.098242 L311.608392,411.098242 L311.608392,415.417123 Z M301.538462,422.108032 L311.608392,422.108032 L311.608392,426.963976 C311.608392,427.657682 311.317483,428.015724 310.735664,428.015724 C309.862937,428.015724 308.923077,427.993347 307.893706,427.970969 L308.206993,429.134605 L311.138462,429.134605 C312.257343,429.134605 312.816783,428.552787 312.816783,427.411529 L312.816783,409.934605 L300.41958,409.934605 L300.41958,420.787752 C300.374825,423.920619 299.591608,426.494046 298.047552,428.508032 L298.987413,429.358382 C300.464336,427.456284 301.314685,425.039501 301.538462,422.108032 L301.538462,422.108032 Z" id="7月" fill-opacity="0.6" fill="#4F4F4F" sketch:type="MSShapeGroup"></path>
            <path d="M400.973427,411.187752 C400.436364,411.814326 399.787413,412.373766 399.071329,412.843696 C398.355245,413.291249 397.616783,413.626913 396.878322,413.850689 L396.878322,415.238102 C398.4,414.79055 399.675524,414.007333 400.704895,412.888452 L400.704895,427.165375 L402.092308,427.165375 L402.092308,411.187752 L400.973427,411.187752 Z M411.423776,410.874466 C409.499301,410.874466 408.067133,411.747193 407.127273,413.515025 C406.344056,414.924815 405.963636,416.804536 405.963636,419.176563 C405.963636,421.526214 406.344056,423.405934 407.127273,424.838102 C408.067133,426.583556 409.499301,427.478661 411.423776,427.478661 C413.348252,427.478661 414.78042,426.583556 415.72028,424.838102 C416.481119,423.405934 416.883916,421.526214 416.883916,419.176563 C416.883916,416.804536 416.481119,414.924815 415.72028,413.515025 C414.78042,411.747193 413.348252,410.874466 411.423776,410.874466 L411.423776,410.874466 Z M411.423776,412.082857 C412.945455,412.082857 414.064336,412.866074 414.758042,414.454885 C415.25035,415.618522 415.518881,417.207333 415.518881,419.176563 C415.518881,421.145794 415.25035,422.712228 414.758042,423.898242 C414.064336,425.464675 412.945455,426.27027 411.423776,426.27027 C409.87972,426.27027 408.760839,425.464675 408.08951,423.898242 C407.597203,422.712228 407.351049,421.145794 407.351049,419.176563 C407.351049,417.207333 407.597203,415.618522 408.08951,414.454885 C408.760839,412.866074 409.87972,412.082857 411.423776,412.082857 L411.423776,412.082857 Z M424.917483,416.558382 L434.92028,416.558382 L434.92028,420.966773 L424.917483,420.966773 L424.917483,416.558382 Z M434.92028,415.417123 L424.917483,415.417123 L424.917483,411.098242 L434.92028,411.098242 L434.92028,415.417123 Z M424.85035,422.108032 L434.92028,422.108032 L434.92028,426.963976 C434.92028,427.657682 434.629371,428.015724 434.047552,428.015724 C433.174825,428.015724 432.234965,427.993347 431.205594,427.970969 L431.518881,429.134605 L434.45035,429.134605 C435.569231,429.134605 436.128671,428.552787 436.128671,427.411529 L436.128671,409.934605 L423.731469,409.934605 L423.731469,420.787752 C423.686713,423.920619 422.903497,426.494046 421.359441,428.508032 L422.299301,429.358382 C423.776224,427.456284 424.626573,425.039501 424.85035,422.108032 L424.85035,422.108032 Z" id="7月" fill-opacity="0.6" fill="#4F4F4F" sketch:type="MSShapeGroup"></path>
            <path d="M528.430769,411.187752 C527.893706,411.814326 527.244755,412.373766 526.528671,412.843696 C525.812587,413.291249 525.074126,413.626913 524.335664,413.850689 L524.335664,415.238102 C525.857343,414.79055 527.132867,414.007333 528.162238,412.888452 L528.162238,427.165375 L529.54965,427.165375 L529.54965,411.187752 L528.430769,411.187752 Z M537.292308,411.187752 C536.755245,411.814326 536.106294,412.373766 535.39021,412.843696 C534.674126,413.291249 533.935664,413.626913 533.197203,413.850689 L533.197203,415.238102 C534.718881,414.79055 535.994406,414.007333 537.023776,412.888452 L537.023776,427.165375 L538.411189,427.165375 L538.411189,411.187752 L537.292308,411.187752 Z M547.80979,416.558382 L557.812587,416.558382 L557.812587,420.966773 L547.80979,420.966773 L547.80979,416.558382 Z M557.812587,415.417123 L547.80979,415.417123 L547.80979,411.098242 L557.812587,411.098242 L557.812587,415.417123 Z M547.742657,422.108032 L557.812587,422.108032 L557.812587,426.963976 C557.812587,427.657682 557.521678,428.015724 556.93986,428.015724 C556.067133,428.015724 555.127273,427.993347 554.097902,427.970969 L554.411189,429.134605 L557.342657,429.134605 C558.461538,429.134605 559.020979,428.552787 559.020979,427.411529 L559.020979,409.934605 L546.623776,409.934605 L546.623776,420.787752 C546.579021,423.920619 545.795804,426.494046 544.251748,428.508032 L545.191608,429.358382 C546.668531,427.456284 547.518881,425.039501 547.742657,422.108032 L547.742657,422.108032 Z" id="7月" fill-opacity="0.6" fill="#4F4F4F" sketch:type="MSShapeGroup"></path>
            <ellipse id="Oval-178-Copy-15" stroke="#51E0EE" stroke-width="2.7972028" sketch:type="MSShapeGroup" cx="123.776224" cy="466.771318" rx="7.69230769" ry="7.68863049"></ellipse>
            <ellipse id="Oval-178-Copy-17" stroke="#49AEFF" stroke-width="2.7972028" sketch:type="MSShapeGroup" cx="481.818182" cy="466.771318" rx="7.69230769" ry="7.68863049"></ellipse>
            <path d="M297.202797,373.808786 C381.783469,373.808786 450.34965,305.275381 450.34965,220.735142 C450.34965,136.194903 381.783469,67.6614987 297.202797,67.6614987 C212.622126,67.6614987 144.055944,136.194903 144.055944,220.735142 C144.055944,305.275381 212.622126,373.808786 297.202797,373.808786 Z" id="Oval-174" stroke-opacity="0.9" stroke="#393939" stroke-width="4.1958042" fill-opacity="0.75" fill="#4A4A4A" sketch:type="MSShapeGroup"></path>
            <path d="M146.853147,248.384414 L209.371899,187.602528 L251.015533,248.384411 L276.149489,219.804243 L292.201657,241.050686 L322.977544,233.770069 L362.917671,267.565891 L415.806318,213.349831 L415.806318,165.866681 L430.769231,144.547804" id="Path-375" stroke="#FFFFFF" stroke-width="4.1958042" filter="url(#filter-1)" sketch:type="MSShapeGroup"></path>
            <ellipse id="Oval-175" fill="#51E0EE" filter="url(#filter-2)" sketch:type="MSShapeGroup" cx="209.79021" cy="192.077519" rx="12.5874126" ry="12.5813953"></ellipse>
            <ellipse id="Oval-175-Copy" fill="#A7FFFC" filter="url(#filter-3)" sketch:type="MSShapeGroup" cx="274.825175" cy="220.735142" rx="6.29370629" ry="6.29069767"></ellipse>
            <ellipse id="Oval-175-Copy-3" fill="#A7FFFC" filter="url(#filter-4)" sketch:type="MSShapeGroup" cx="324.475524" cy="234.015504" rx="8.39160839" ry="8.3875969"></ellipse>
            <ellipse id="Oval-175-Copy-4" fill="#49AEFF" filter="url(#filter-5)" sketch:type="MSShapeGroup" cx="296.503497" cy="239.607235" rx="6.99300699" ry="6.98966408"></ellipse>
            <ellipse id="Oval-175-Copy-5" fill="#49AEFF" filter="url(#filter-6)" sketch:type="MSShapeGroup" cx="251.748252" cy="245.198966" rx="6.99300699" ry="6.98966408"></ellipse>
            <path d="M201.588,6.584 L211.052,6.584 C210.66,8.012 210.184,9.3 209.624,10.448 L211.556,11.008 C212.2,9.356 212.732,7.676 213.124,5.968 L213.124,4.652 L202.12,4.652 C202.344,3.616 202.568,2.496 202.736,1.292 L200.832,0.984 C200.272,5.24 199.068,8.544 197.164,10.952 L198.788,12.1 C199.936,10.7 200.86,8.852 201.588,6.584 L201.588,6.584 Z M204.836,26.688 C206.292,26.688 207.02,25.848 207.02,24.196 L207.02,8.712 L205.004,8.712 L205.004,23.692 C205.004,24.476 204.696,24.896 204.136,24.896 C203.128,24.896 202.064,24.84 200.972,24.756 L201.42,26.688 L204.836,26.688 Z M191.144,10.28 L196.268,10.28 L196.268,2.16 L188.652,2.16 L188.652,4.008 L194.336,4.008 L194.336,8.46 L189.352,8.46 L188.512,16.636 L194.588,16.636 C194.588,19.94 194.448,22.124 194.224,23.188 C194,24.196 193.132,24.728 191.62,24.728 C190.864,24.728 190.108,24.672 189.324,24.616 L189.8,26.464 C190.584,26.52 191.34,26.576 192.068,26.576 C194.42,26.464 195.736,25.624 196.072,24 C196.352,22.544 196.52,19.492 196.52,14.844 L190.612,14.844 L191.144,10.28 Z M200.86,12.856 C200.188,16.188 199.124,19.24 197.612,21.984 L199.32,23.048 C200.748,20.304 201.868,17.028 202.68,13.22 L200.86,12.856 Z M210.884,12.492 L209.148,13.08 C210.184,15.936 211.136,19.24 212.004,22.964 L213.796,22.18 C212.956,18.764 212.004,15.516 210.884,12.492 L210.884,12.492 Z M235.58,8.572 C233.956,13.724 231.324,17.924 227.684,21.172 L228.776,22.964 C232.248,19.66 234.796,15.572 236.448,10.644 L236.448,23.412 C236.448,24.308 236.084,24.784 235.412,24.784 C234.348,24.784 233.228,24.728 232.08,24.644 L232.5,26.576 L236.112,26.576 C237.624,26.576 238.408,25.68 238.408,23.916 L238.408,8.572 L241.628,8.572 L241.628,6.696 L238.408,6.696 L238.408,1.18 L236.448,1.18 L236.448,6.696 L229,6.696 L229,8.572 L235.58,8.572 Z M227.404,2.244 L217.492,2.244 L217.492,19.94 L219.34,19.94 L219.34,4.12 L225.612,4.12 L225.612,19.716 L227.404,19.716 L227.404,2.244 Z M221.636,6.332 L221.636,15.012 C221.58,17.616 221.188,19.716 220.404,21.34 C219.564,22.908 218.08,24.14 215.98,25.092 L217.072,26.8 C219.256,25.792 220.824,24.42 221.804,22.656 C222.784,20.752 223.316,18.204 223.372,15.012 L223.372,6.332 L221.636,6.332 Z M224.436,20.696 L223.176,21.928 C224.772,23.496 226.032,24.952 226.956,26.352 L228.356,24.952 C227.292,23.552 226.004,22.124 224.436,20.696 L224.436,20.696 Z M247.536,26.492 C249.16,26.492 250,25.652 250,23.972 L250,15.712 C251.036,15.208 252.044,14.648 253.052,14.088 L253.052,12.016 C252.044,12.632 251.036,13.192 250,13.696 L250,8.208 L253.192,8.208 L253.192,6.276 L250,6.276 L250,1.152 L247.984,1.152 L247.984,6.276 L244.568,6.276 L244.568,8.208 L247.984,8.208 L247.984,14.592 C246.696,15.124 245.352,15.572 244.008,15.936 L244.512,17.952 C245.688,17.56 246.864,17.112 247.984,16.636 L247.984,23.468 C247.984,24.252 247.592,24.644 246.836,24.644 C246.164,24.644 245.436,24.588 244.708,24.532 L245.128,26.492 L247.536,26.492 Z M254.116,13.108 L254.116,15.068 L255.796,15.068 C256.524,17.504 257.98,19.688 260.136,21.648 C258.092,23.104 255.6,24.28 252.632,25.204 L253.724,26.912 C256.888,25.932 259.576,24.616 261.76,22.992 C263.692,24.448 266.1,25.736 268.984,26.856 L270.076,25.12 C267.36,24.168 265.064,23.048 263.188,21.76 C265.204,19.884 266.632,17.616 267.5,14.984 L267.5,13.108 L254.116,13.108 Z M257.644,15.068 L265.512,15.068 C264.644,17.14 263.328,18.96 261.564,20.528 C259.66,18.904 258.372,17.084 257.644,15.068 L257.644,15.068 Z M256.272,2.244 L256.272,5.968 C256.272,7.872 255.18,9.328 253.052,10.364 L254.396,11.904 C256.972,10.448 258.26,8.404 258.26,5.772 L258.26,4.148 L263.692,4.148 L263.692,8.712 C263.692,10.336 264.56,11.176 266.352,11.176 L269.208,11.176 L269.208,9.3 L266.856,9.3 C266.072,9.3 265.68,8.936 265.68,8.264 L265.68,2.244 L256.272,2.244 Z M274.304,1.712 L273.324,3.224 C274.864,3.728 276.376,4.4 277.888,5.296 L278.952,3.672 C277.552,2.888 275.984,2.244 274.304,1.712 L274.304,1.712 Z M283.32,1.04 C282.648,3.028 281.416,4.708 279.568,6.052 L280.744,7.62 C281.808,6.78 282.732,5.856 283.516,4.848 L287.1,4.848 C286.764,6.416 286.064,7.648 285.056,8.572 C283.824,9.636 281.836,10.448 279.092,11.036 L279.848,12.828 C282.984,12.1 285.224,11.064 286.596,9.776 C287.016,9.328 287.38,8.852 287.716,8.348 C289.452,10.588 292.364,12.1 296.452,12.94 L297.18,11.148 C292.868,10.336 289.984,8.852 288.528,6.696 C288.752,6.136 288.92,5.52 289.032,4.848 L293.792,4.848 C293.456,5.94 293.064,6.92 292.588,7.788 L294.52,8.376 C295.08,7.032 295.528,5.66 295.864,4.288 L295.864,3.084 L284.58,3.084 C284.86,2.524 285.084,1.908 285.308,1.292 L283.32,1.04 Z M293.96,13.584 L275.956,13.584 L275.956,22.124 L277.972,22.124 L277.972,15.46 L291.944,15.46 L291.944,21.9 L293.96,21.9 L293.96,13.584 Z M284.16,16.524 C283.936,19.408 283.18,21.452 281.92,22.656 C280.492,23.944 277.552,24.7 273.1,24.952 L273.884,26.744 C278.924,26.352 282.172,25.372 283.628,23.86 C284.944,22.628 285.784,20.248 286.176,16.692 L284.16,16.524 Z M278.196,6.976 C276.74,8.376 274.948,9.692 272.82,10.896 L274.164,12.464 C276.236,11.176 277.972,9.804 279.372,8.348 L278.196,6.976 Z M286.82,21.816 L285.784,23.356 C289.172,24.224 292.476,25.428 295.668,26.94 L296.76,25.26 C293.764,23.916 290.46,22.768 286.82,21.816 L286.82,21.816 Z M321.008,12.184 L305.02,12.184 L305.02,26.772 L307.036,26.772 L307.036,25.624 L320.308,25.624 L320.308,26.8 L322.296,26.8 L322.296,19.604 L307.036,19.604 L307.036,17.672 L321.008,17.672 L321.008,12.184 Z M307.036,23.832 L307.036,21.228 L320.308,21.228 L320.308,23.832 L307.036,23.832 Z M307.036,16.048 L307.036,13.808 L319.048,13.808 L319.048,16.048 L307.036,16.048 Z M324.872,8.796 L314.232,8.796 C313.952,8.012 313.644,7.312 313.336,6.668 L314.848,7.592 C315.464,6.752 316.052,5.856 316.556,4.904 L318.32,4.904 C318.992,5.8 319.58,6.752 320.084,7.76 L321.876,7.088 C321.54,6.416 321.064,5.688 320.476,4.904 L325.46,4.904 L325.46,3.14 L317.368,3.14 C317.592,2.58 317.788,2.02 317.984,1.432 L316.052,1.012 C315.436,3.028 314.484,4.848 313.14,6.528 L313.308,6.64 L311.348,6.976 C311.656,7.536 311.936,8.124 312.216,8.796 L301.128,8.796 L301.128,13.864 L303.088,13.864 L303.088,10.532 L322.912,10.532 L322.912,13.864 L324.872,13.864 L324.872,8.796 Z M304.488,4.904 L306.084,4.904 C306.784,5.912 307.4,6.948 307.904,8.012 L309.752,7.312 C309.36,6.556 308.828,5.744 308.212,4.904 L312.916,4.904 L312.916,3.14 L305.412,3.14 C305.636,2.58 305.888,2.02 306.112,1.404 L304.18,0.984 C303.396,3.112 302.164,5.072 300.484,6.808 L302.248,7.928 C303.088,7.004 303.816,5.996 304.488,4.904 L304.488,4.904 Z M338.9,2.216 L338.9,15.18 L344.64,15.18 L344.64,18.596 L338.424,18.596 L338.424,20.472 L344.64,20.472 L344.64,24.028 L337.584,24.028 L337.584,25.96 L353.712,25.96 L353.712,24.028 L346.656,24.028 L346.656,20.472 L352.816,20.472 L352.816,18.596 L346.656,18.596 L346.656,15.18 L352.368,15.18 L352.368,2.216 L338.9,2.216 Z M350.436,13.388 L346.656,13.388 L346.656,9.58 L350.436,9.58 L350.436,13.388 Z M344.64,13.388 L340.832,13.388 L340.832,9.58 L344.64,9.58 L344.64,13.388 Z M340.832,7.844 L340.832,4.008 L344.64,4.008 L344.64,7.844 L340.832,7.844 Z M346.656,4.008 L350.436,4.008 L350.436,7.844 L346.656,7.844 L346.656,4.008 Z M328.82,11.484 L328.82,13.444 L331.816,13.444 L331.816,20.388 C330.584,20.724 329.324,21.032 328.064,21.284 L328.568,23.216 C331.648,22.432 334.56,21.48 337.248,20.304 L337.248,18.372 C336.128,18.876 335.008,19.324 333.888,19.716 L333.888,13.444 L336.94,13.444 L336.94,11.484 L333.888,11.484 L333.888,4.876 L337.248,4.876 L337.248,2.972 L328.428,2.972 L328.428,4.876 L331.816,4.876 L331.816,11.484 L328.82,11.484 Z M379.808,5.94 L373.144,5.94 L373.144,1.068 L371.128,1.068 L371.128,5.94 L366.788,5.94 L366.788,1.068 L364.772,1.068 L364.772,5.94 L358.192,5.94 L358.192,26.744 L360.124,26.744 L360.124,25.316 L377.876,25.316 L377.876,26.744 L379.808,26.744 L379.808,5.94 Z M360.124,23.384 L360.124,16.244 L364.772,16.244 L364.772,23.384 L360.124,23.384 Z M366.788,16.244 L371.128,16.244 L371.128,23.384 L366.788,23.384 L366.788,16.244 Z M373.144,16.244 L377.876,16.244 L377.876,23.384 L373.144,23.384 L373.144,16.244 Z M360.124,14.34 L360.124,7.9 L364.772,7.9 L364.772,14.34 L360.124,14.34 Z M366.788,7.9 L371.128,7.9 L371.128,14.34 L366.788,14.34 L366.788,7.9 Z M373.144,7.9 L377.876,7.9 L377.876,14.34 L373.144,14.34 L373.144,7.9 Z M394.144,21.228 C391.4,22.292 388.18,23.16 384.484,23.776 L384.736,25.736 C388.264,25.092 391.4,24.224 394.144,23.16 L394.144,21.228 Z M389.16,0.984 C388.04,4.316 386.724,7.284 385.212,9.86 C384.96,10.224 384.68,10.476 384.372,10.588 L384.848,12.436 C386.416,12.24 387.984,12.044 389.524,11.82 C388.068,14.424 386.808,16.272 385.772,17.336 C385.52,17.56 385.212,17.756 384.848,17.924 L385.408,19.772 C388.096,19.408 390.896,18.736 393.836,17.784 L393.836,15.964 C391.82,16.636 389.804,17.168 387.788,17.56 C389.412,15.572 391.484,12.212 393.948,7.48 L392.156,6.808 C391.596,7.928 391.036,8.992 390.532,10 C389.272,10.196 388.012,10.364 386.752,10.476 C388.208,8.292 389.664,5.38 391.092,1.74 L389.16,0.984 Z M407.724,6.08 L400.752,7.06 L400.752,1.124 L398.736,1.124 L398.736,7.34 L394.452,7.956 L394.76,9.804 L398.792,9.216 C398.82,10.56 398.904,11.848 399.044,13.052 L393.976,13.864 L394.256,15.768 L399.296,14.956 C399.408,15.684 399.52,16.384 399.688,17.112 C400.024,18.624 400.444,19.968 400.976,21.2 C398.904,22.74 396.58,23.916 394.004,24.756 L395.18,26.38 C397.56,25.652 399.8,24.504 401.872,22.964 C402.04,23.328 402.264,23.664 402.516,24 C403.72,25.68 404.98,26.52 406.324,26.576 C407.78,26.576 408.9,24.7 409.684,21.004 L407.976,19.884 C407.472,22.88 406.828,24.392 406.1,24.392 C405.372,24.392 404.56,23.692 403.636,22.32 C403.524,22.152 403.44,21.956 403.328,21.788 C405.064,20.276 406.66,18.428 408.144,16.272 L406.548,15.18 C405.372,16.972 404.028,18.54 402.516,19.94 C402.124,18.82 401.788,17.56 401.508,16.104 C401.424,15.656 401.34,15.152 401.284,14.648 L408.788,13.472 L408.48,11.568 L401.06,12.744 C400.948,11.54 400.864,10.28 400.808,8.936 L408.004,7.928 L407.724,6.08 Z M403.888,1.04 L402.32,2.02 C403.72,3.308 404.84,4.512 405.624,5.604 L407.192,4.512 C406.408,3.532 405.316,2.384 403.888,1.04 L403.888,1.04 Z" id="弥财投资管理曲线" fill="#4F4F4F" sketch:type="MSShapeGroup"></path>
            <ellipse id="Oval-175-Copy-2" fill="#49AEFF" filter="url(#filter-7)" sketch:type="MSShapeGroup" cx="363.636364" cy="263.372093" rx="12.5874126" ry="12.5813953"></ellipse>
            <path d="M124.475524,460.48062 L208.391608,201.863049" id="Line" stroke="#51E0EE" stroke-width="2.7972028" stroke-linecap="square" sketch:type="MSShapeGroup"></path>
            <path d="M363.636364,263.372093 L478.669706,461.459401" id="Line" stroke="#49AEFF" stroke-width="2.7972028" stroke-linecap="square" sketch:type="MSShapeGroup"></path>
            <path d="M25.5144056,489.028096 L16.1064056,489.028096 C16.6344056,488.140096 17.0424056,487.180096 17.3304056,486.172096 L16.0104056,485.980096 C15.7464056,487.036096 15.3144056,488.044096 14.7384056,489.028096 L9.67440559,489.028096 L9.67440559,507.940096 L10.9704056,507.940096 L10.9704056,506.308096 L24.2184056,506.308096 L24.2184056,507.940096 L25.5144056,507.940096 L25.5144056,489.028096 Z M10.9704056,505.060096 L10.9704056,500.764096 L24.2184056,500.764096 L24.2184056,505.060096 L10.9704056,505.060096 Z M10.9704056,499.516096 L10.9704056,495.508096 L24.2184056,495.508096 L24.2184056,499.516096 L10.9704056,499.516096 Z M10.9704056,494.260096 L10.9704056,490.276096 L24.2184056,490.276096 L24.2184056,494.260096 L10.9704056,494.260096 Z M31.8264056,487.900096 L31.8264056,489.124096 L40.3704056,489.124096 L40.3704056,487.900096 L31.8264056,487.900096 Z M30.8664056,494.356096 L30.8664056,495.652096 L34.3944056,495.652096 C33.0984056,500.260096 32.0664056,503.068096 31.2984056,504.076096 C31.2504056,504.124096 31.1544056,504.148096 31.0344056,504.196096 L31.3464056,505.420096 C34.3464056,504.868096 37.1304056,504.148096 39.6984056,503.236096 C39.9624056,503.812096 40.2264056,504.460096 40.5144056,505.132096 L41.6664056,504.556096 C40.6104056,502.108096 39.5064056,499.876096 38.3304056,497.812096 L37.2264056,498.340096 C37.8984056,499.492096 38.5464056,500.764096 39.2184056,502.156096 C37.1064056,502.948096 34.9944056,503.548096 32.8584056,503.932096 C33.6504056,502.372096 34.5864056,499.612096 35.6664056,495.652096 L41.3064056,495.652096 L41.3064056,494.356096 L30.8664056,494.356096 Z M45.1704056,486.124096 L45.1704056,490.588096 L42.0024056,490.588096 L42.0024056,491.836096 L45.1704056,491.836096 L45.1704056,492.172096 C45.1224056,499.036096 43.4904056,504.004096 40.3224056,507.100096 L41.3544056,508.012096 C44.6904056,504.652096 46.3944056,499.372096 46.4664056,492.172096 L46.4664056,491.836096 L50.4744056,491.836096 C50.4264056,498.868096 50.3304056,503.116096 50.1624056,504.580096 C49.9704056,505.876096 49.3464056,506.548096 48.2904056,506.548096 C47.5944056,506.548096 46.7784056,506.524096 45.8184056,506.500096 L46.1304056,507.628096 C47.2104056,507.676096 47.9784056,507.700096 48.4104056,507.700096 C50.2104056,507.700096 51.2184056,506.788096 51.4104056,504.964096 C51.6264056,503.140096 51.7464056,498.364096 51.7464056,490.588096 L46.4664056,490.588096 L46.4664056,486.124096 L45.1704056,486.124096 Z M63.9864056,493.084096 L63.9864056,494.212096 L68.8584056,494.212096 L68.8584056,493.084096 L63.9864056,493.084096 Z M64.2024056,496.468096 L64.2024056,503.308096 L68.7624056,503.308096 L68.7624056,496.468096 L64.2024056,496.468096 Z M67.7784056,502.252096 L65.1864056,502.252096 L65.1864056,497.524096 L67.7784056,497.524096 L67.7784056,502.252096 Z M74.4024056,492.964096 C73.8504056,495.700096 73.0824056,498.100096 72.1224056,500.140096 C71.9784056,499.324096 71.8344056,498.460096 71.7144056,497.548096 C71.4264056,495.244096 71.2104056,492.940096 71.1144056,490.612096 L76.1064056,490.612096 L76.1064056,489.388096 L74.9064056,489.388096 C74.4984056,488.380096 74.0664056,487.468096 73.6104056,486.652096 L72.5304056,486.844096 C73.0104056,487.612096 73.4424056,488.452096 73.8264056,489.388096 L71.0664056,489.388096 C71.0184056,488.284096 70.9944056,487.180096 70.9944056,486.076096 L69.7704056,486.076096 C69.7704056,487.180096 69.7704056,488.284096 69.8184056,489.388096 L61.4184056,489.388096 L61.4184056,497.380096 C61.3224056,501.508096 60.4824056,504.748096 58.8504056,507.052096 L59.8104056,507.916096 C61.5864056,505.276096 62.5224056,501.748096 62.5944056,497.380096 L62.5944056,490.612096 L69.8904056,490.612096 C70.0344056,493.372096 70.2984056,496.036096 70.6824056,498.628096 C70.8504056,499.732096 71.0424056,500.740096 71.2824056,501.676096 C69.9624056,503.932096 68.2824056,505.636096 66.2664056,506.788096 L67.0344056,507.796096 C68.8104056,506.740096 70.3704056,505.228096 71.7144056,503.260096 C72.0024056,504.268096 72.3144056,505.132096 72.6984056,505.828096 C73.4184056,507.148096 74.1864056,507.820096 75.0024056,507.820096 C76.0584056,507.796096 76.6104056,506.020096 76.6584056,502.492096 L75.6024056,502.012096 C75.5064056,505.012096 75.2664056,506.524096 74.8584056,506.524096 C74.4264056,506.500096 73.8984056,505.876096 73.3224056,504.628096 C73.0104056,503.860096 72.7464056,502.972096 72.5064056,501.964096 C73.8024056,499.636096 74.8104056,496.804096 75.5304056,493.444096 L74.4024056,492.964096 Z M55.8984056,487.132096 L54.8424056,487.804096 C56.4024056,489.724096 57.6264056,491.476096 58.5384056,493.060096 L59.5704056,492.340096 C58.7304056,490.852096 57.5064056,489.124096 55.8984056,487.132096 L55.8984056,487.132096 Z M58.7784056,496.948096 C57.6264056,500.308096 56.2824056,503.620096 54.7464056,506.836096 L55.9464056,507.364096 C57.4104056,504.244096 58.7304056,500.932096 59.9064056,497.404096 L58.7784056,496.948096 Z M89.1384056,486.124096 C86.3304056,489.676096 82.8264056,492.652096 78.6024056,495.052096 L79.2264056,496.204096 C83.5224056,493.708096 86.9784056,490.756096 89.5944056,487.324096 C92.4264056,490.924096 95.8584056,493.828096 99.8664056,496.060096 L100.514406,494.908096 C96.5784056,492.772096 93.0744056,489.844096 90.0504056,486.124096 L89.1384056,486.124096 Z M94.0104056,496.012096 L94.0104056,499.900096 C94.0104056,500.764096 93.6504056,501.196096 92.9784056,501.196096 C91.8984056,501.196096 90.7464056,501.148096 89.5464056,501.100096 L89.9064056,502.324096 C91.0344056,502.372096 92.2104056,502.420096 93.4104056,502.420096 C94.6584056,502.372096 95.3064056,501.628096 95.3064056,500.236096 L95.3064056,494.812096 L83.7624056,494.812096 L83.7624056,505.372096 C83.7624056,506.812096 84.5064056,507.556096 86.0184056,507.556096 L94.4904056,507.556096 C95.9784056,507.556096 96.9864056,507.316096 97.5144056,506.884096 C98.1144056,506.356096 98.5224056,504.940096 98.7384056,502.684096 L97.5384056,502.276096 C97.3704056,503.908096 97.1064056,505.012096 96.7464056,505.588096 C96.4104056,506.068096 95.5704056,506.332096 94.2264056,506.332096 L86.4744056,506.332096 C85.5384056,506.332096 85.0824056,505.876096 85.0824056,504.988096 L85.0824056,496.012096 L94.0104056,496.012096 Z M105.890406,503.212096 C105.506406,503.212096 105.218406,503.308096 105.002406,503.548096 C104.762406,503.740096 104.666406,504.052096 104.666406,504.436096 C104.666406,504.796096 104.762406,505.084096 105.002406,505.300096 C105.218406,505.492096 105.506406,505.612096 105.890406,505.612096 C106.034406,505.612096 106.154406,505.588096 106.250406,505.588096 C106.178406,506.788096 105.578406,507.748096 104.426406,508.516096 L104.930406,509.356096 C106.514406,508.492096 107.330406,507.100096 107.330406,505.204096 C107.330406,503.860096 106.850406,503.212096 105.890406,503.212096 L105.890406,503.212096 Z M139.682406,485.980096 C138.962406,488.044096 137.594406,489.796096 135.554406,491.236096 L136.322406,492.220096 C136.946406,491.740096 137.546406,491.236096 138.122406,490.684096 C138.746406,491.764096 139.634406,492.748096 140.834406,493.612096 C139.298406,494.380096 137.498406,495.028096 135.410406,495.556096 L135.914406,496.708096 C138.266406,496.084096 140.282406,495.316096 141.986406,494.356096 C143.546406,495.268096 145.514406,496.036096 147.914406,496.636096 L148.442406,495.412096 C146.426406,494.932096 144.674406,494.332096 143.210406,493.588096 C144.962406,492.388096 146.282406,490.972096 147.170406,489.292096 L147.170406,488.140096 L140.066406,488.140096 C140.402406,487.516096 140.714406,486.844096 140.954406,486.124096 L139.682406,485.980096 Z M138.938406,489.772096 C139.034406,489.628096 139.154406,489.484096 139.298406,489.340096 L145.730406,489.340096 C144.866406,490.708096 143.618406,491.908096 142.034406,492.916096 C140.642406,492.052096 139.610406,490.996096 138.938406,489.772096 L138.938406,489.772096 Z M131.810406,486.076096 C130.730406,489.796096 128.954406,493.132096 126.506406,496.084096 L126.914406,497.380096 C127.874406,496.276096 128.786406,495.124096 129.602406,493.900096 L129.602406,507.988096 L130.874406,507.988096 L130.874406,491.740096 C131.714406,490.156096 132.434406,488.452096 133.010406,486.628096 L131.810406,486.076096 Z M133.370406,490.252096 L133.370406,503.788096 L134.594406,503.788096 L134.594406,490.252096 L133.370406,490.252096 Z M142.946406,496.204096 C142.154406,496.852096 141.266406,497.428096 140.306406,497.932096 C139.250406,498.460096 138.002406,498.916096 136.610406,499.300096 L137.258406,500.332096 C138.842406,499.804096 140.138406,499.276096 141.170406,498.724096 C142.082406,498.220096 143.018406,497.572096 143.930406,496.780096 L142.946406,496.204096 Z M145.202406,497.956096 C143.426406,500.188096 140.786406,501.796096 137.234406,502.804096 L137.738406,503.932096 C141.434406,502.852096 144.218406,501.076096 146.114406,498.628096 L145.202406,497.956096 Z M136.754406,508.060096 C139.058406,507.436096 141.290406,506.524096 143.450406,505.348096 C145.610406,504.052096 147.194406,502.564096 148.250406,500.932096 L147.314406,500.236096 C146.114406,501.868096 144.650406,503.212096 142.898406,504.244096 C141.170406,505.252096 138.962406,506.140096 136.226406,506.908096 L136.754406,508.060096 Z M161.642406,488.716096 L161.642406,505.540096 L156.170406,505.540096 L156.170406,493.756096 L154.874406,493.756096 L154.874406,505.540096 L150.962406,505.540096 L150.962406,506.812096 L172.250406,506.812096 L172.250406,505.540096 L162.914406,505.540096 L162.914406,497.428096 L170.042406,497.428096 L170.042406,496.156096 L162.914406,496.156096 L162.914406,488.716096 L171.242406,488.716096 L171.242406,487.444096 L152.378406,487.444096 L152.378406,488.716096 L161.642406,488.716096 Z M177.458406,507.676096 C178.730406,507.676096 179.378406,507.028096 179.378406,505.732096 L179.378406,498.412096 C180.338406,497.956096 181.274406,497.452096 182.186406,496.924096 L182.186406,495.628096 C181.274406,496.156096 180.338406,496.660096 179.378406,497.140096 L179.378406,491.884096 L182.282406,491.884096 L182.282406,490.612096 L179.378406,490.612096 L179.378406,486.100096 L178.082406,486.100096 L178.082406,490.612096 L175.010406,490.612096 L175.010406,491.884096 L178.082406,491.884096 L178.082406,497.692096 C176.930406,498.172096 175.730406,498.580096 174.530406,498.916096 L174.866406,500.212096 C175.946406,499.852096 177.026406,499.444096 178.082406,499.012096 L178.082406,505.396096 C178.082406,506.140096 177.722406,506.524096 177.002406,506.524096 C176.426406,506.524096 175.802406,506.476096 175.130406,506.428096 L175.418406,507.676096 L177.458406,507.676096 Z M183.170406,496.468096 L183.170406,497.764096 L184.730406,497.764096 C185.402406,499.972096 186.698406,501.916096 188.618406,503.644096 C186.842406,504.988096 184.610406,506.092096 181.946406,506.932096 L182.642406,508.012096 C185.426406,507.148096 187.778406,505.972096 189.650406,504.508096 C191.354406,505.804096 193.490406,506.980096 196.034406,507.988096 L196.730406,506.884096 C194.282406,505.972096 192.218406,504.916096 190.562406,503.716096 C192.362406,502.060096 193.658406,500.044096 194.450406,497.692096 L194.450406,496.468096 L183.170406,496.468096 Z M185.930406,497.764096 L193.154406,497.764096 C192.386406,499.708096 191.162406,501.412096 189.530406,502.900096 C187.778406,501.412096 186.578406,499.684096 185.930406,497.764096 L185.930406,497.764096 Z M185.186406,487.132096 L185.186406,490.132096 C185.186406,491.860096 184.226406,493.204096 182.306406,494.140096 L183.194406,495.148096 C185.378406,493.924096 186.482406,492.196096 186.482406,489.988096 L186.482406,488.380096 L191.546406,488.380096 L191.546406,492.652096 C191.546406,493.924096 192.218406,494.572096 193.562406,494.572096 L195.986406,494.572096 L195.986406,493.348096 L193.826406,493.348096 C193.154406,493.348096 192.818406,493.036096 192.818406,492.436096 L192.818406,487.132096 L185.186406,487.132096 Z M200.354406,486.700096 L199.682406,487.684096 C201.026406,488.092096 202.346406,488.668096 203.618406,489.436096 L204.314406,488.356096 C203.114406,487.708096 201.794406,487.156096 200.354406,486.700096 L200.354406,486.700096 Z M208.346406,486.004096 C207.770406,487.732096 206.666406,489.220096 205.010406,490.420096 L205.802406,491.452096 C206.762406,490.732096 207.554406,489.916096 208.202406,489.004096 L211.706406,489.004096 C211.394406,490.492096 210.770406,491.668096 209.810406,492.532096 C208.730406,493.492096 206.978406,494.212096 204.554406,494.740096 L205.058406,495.916096 C207.698406,495.292096 209.618406,494.428096 210.794406,493.324096 C211.226406,492.892096 211.610406,492.388096 211.946406,491.860096 C213.386406,493.876096 215.930406,495.244096 219.530406,495.964096 L219.986406,494.836096 C216.242406,494.116096 213.746406,492.748096 212.450406,490.756096 C212.642406,490.228096 212.810406,489.628096 212.930406,489.004096 L217.442406,489.004096 C217.154406,490.012096 216.794406,490.948096 216.338406,491.764096 L217.586406,492.124096 C218.090406,490.996096 218.498406,489.844096 218.786406,488.644096 L218.786406,487.828096 L208.922406,487.828096 C209.186406,487.300096 209.426406,486.748096 209.618406,486.148096 L208.346406,486.004096 Z M217.154406,496.756096 L201.938406,496.756096 L201.938406,504.028096 L203.258406,504.028096 L203.258406,497.980096 L215.834406,497.980096 L215.834406,503.884096 L217.154406,503.884096 L217.154406,496.756096 Z M209.066406,499.108096 C208.874406,501.700096 208.202406,503.524096 207.098406,504.628096 C205.850406,505.804096 203.306406,506.500096 199.466406,506.716096 L199.994406,507.892096 C204.194406,507.556096 206.930406,506.716096 208.178406,505.396096 C209.330406,504.316096 210.050406,502.252096 210.386406,499.228096 L209.066406,499.108096 Z M203.858406,491.164096 C202.634406,492.412096 201.122406,493.564096 199.298406,494.644096 L200.162406,495.628096 C201.938406,494.524096 203.426406,493.324096 204.626406,492.052096 L203.858406,491.164096 Z M211.010406,503.884096 L210.338406,504.868096 C213.242406,505.636096 216.074406,506.692096 218.834406,508.036096 L219.530406,506.956096 C216.962406,505.732096 214.130406,504.700096 211.010406,503.884096 L211.010406,503.884096 Z M235.778406,495.508096 C238.346406,494.788096 241.034406,493.732096 243.818406,492.292096 L243.074406,491.236096 C240.674406,492.556096 238.226406,493.564096 235.778406,494.236096 L235.778406,486.364096 L234.506406,486.364096 L234.506406,505.132096 C234.506406,506.572096 235.202406,507.292096 236.594406,507.292096 L241.034406,507.292096 C241.898406,507.268096 242.546406,507.028096 243.002406,506.548096 C243.506406,505.924096 243.842406,504.292096 244.034406,501.628096 L242.810406,501.220096 C242.690406,503.692096 242.402406,505.156096 241.970406,505.612096 C241.658406,505.876096 241.226406,506.020096 240.698406,506.020096 L236.954406,506.020096 C236.162406,506.020096 235.778406,505.636096 235.778406,504.916096 L235.778406,495.508096 Z M224.762406,507.580096 C227.690406,506.956096 230.426406,506.212096 232.994406,505.372096 L232.658406,504.124096 C230.522406,504.868096 228.362406,505.492096 226.178406,505.972096 L226.178406,494.692096 L232.466406,494.692096 L232.466406,493.396096 L226.178406,493.396096 L226.178406,486.532096 L224.858406,486.532096 L224.858406,505.612096 C224.858406,505.948096 224.690406,506.188096 224.354406,506.380096 L224.762406,507.580096 Z M253.154406,487.540096 L253.154406,488.788096 L255.242406,488.788096 C254.858406,493.276096 253.658406,496.804096 251.690406,499.372096 L252.338406,500.620096 C252.914406,499.876096 253.466406,499.060096 253.946406,498.172096 C255.050406,498.844096 256.178406,499.708096 257.282406,500.764096 C256.130406,503.308096 254.546406,505.300096 252.554406,506.716096 L253.226406,507.868096 C257.090406,505.132096 259.490406,500.404096 260.450406,493.732096 L260.450406,492.580096 L255.914406,492.580096 C256.154406,491.404096 256.346406,490.132096 256.490406,488.788096 L260.978406,488.788096 L260.978406,487.540096 L253.154406,487.540096 Z M254.450406,497.116096 C254.906406,496.132096 255.290406,495.028096 255.626406,493.804096 L259.250406,493.804096 C258.914406,495.916096 258.410406,497.812096 257.786406,499.540096 C256.754406,498.628096 255.650406,497.812096 254.450406,497.116096 L254.450406,497.116096 Z M265.418406,507.772096 C266.738406,507.772096 267.410406,507.076096 267.410406,505.732096 L267.410406,486.148096 L266.114406,486.148096 L266.114406,505.420096 C266.114406,506.212096 265.730406,506.620096 264.962406,506.620096 C264.170406,506.620096 263.354406,506.572096 262.490406,506.524096 L262.778406,507.772096 L265.418406,507.772096 Z M249.098406,494.332096 L249.098406,508.012096 L250.394406,508.012096 L250.394406,491.980096 C251.210406,490.300096 251.906406,488.500096 252.458406,486.556096 L251.234406,485.980096 C250.250406,489.724096 248.666406,493.060096 246.506406,496.012096 L246.914406,497.404096 C247.682406,496.444096 248.426406,495.412096 249.098406,494.332096 L249.098406,494.332096 Z M262.202406,488.356096 L262.202406,503.284096 L263.426406,503.284096 L263.426406,488.356096 L262.202406,488.356096 Z" id="自动减仓，修正投资比例" fill="#4F4F4F" sketch:type="MSShapeGroup"></path>
            <path d="M450.304615,489.028096 L440.896615,489.028096 C441.424615,488.140096 441.832615,487.180096 442.120615,486.172096 L440.800615,485.980096 C440.536615,487.036096 440.104615,488.044096 439.528615,489.028096 L434.464615,489.028096 L434.464615,507.940096 L435.760615,507.940096 L435.760615,506.308096 L449.008615,506.308096 L449.008615,507.940096 L450.304615,507.940096 L450.304615,489.028096 Z M435.760615,505.060096 L435.760615,500.764096 L449.008615,500.764096 L449.008615,505.060096 L435.760615,505.060096 Z M435.760615,499.516096 L435.760615,495.508096 L449.008615,495.508096 L449.008615,499.516096 L435.760615,499.516096 Z M435.760615,494.260096 L435.760615,490.276096 L449.008615,490.276096 L449.008615,494.260096 L435.760615,494.260096 Z M456.616615,487.900096 L456.616615,489.124096 L465.160615,489.124096 L465.160615,487.900096 L456.616615,487.900096 Z M455.656615,494.356096 L455.656615,495.652096 L459.184615,495.652096 C457.888615,500.260096 456.856615,503.068096 456.088615,504.076096 C456.040615,504.124096 455.944615,504.148096 455.824615,504.196096 L456.136615,505.420096 C459.136615,504.868096 461.920615,504.148096 464.488615,503.236096 C464.752615,503.812096 465.016615,504.460096 465.304615,505.132096 L466.456615,504.556096 C465.400615,502.108096 464.296615,499.876096 463.120615,497.812096 L462.016615,498.340096 C462.688615,499.492096 463.336615,500.764096 464.008615,502.156096 C461.896615,502.948096 459.784615,503.548096 457.648615,503.932096 C458.440615,502.372096 459.376615,499.612096 460.456615,495.652096 L466.096615,495.652096 L466.096615,494.356096 L455.656615,494.356096 Z M469.960615,486.124096 L469.960615,490.588096 L466.792615,490.588096 L466.792615,491.836096 L469.960615,491.836096 L469.960615,492.172096 C469.912615,499.036096 468.280615,504.004096 465.112615,507.100096 L466.144615,508.012096 C469.480615,504.652096 471.184615,499.372096 471.256615,492.172096 L471.256615,491.836096 L475.264615,491.836096 C475.216615,498.868096 475.120615,503.116096 474.952615,504.580096 C474.760615,505.876096 474.136615,506.548096 473.080615,506.548096 C472.384615,506.548096 471.568615,506.524096 470.608615,506.500096 L470.920615,507.628096 C472.000615,507.676096 472.768615,507.700096 473.200615,507.700096 C475.000615,507.700096 476.008615,506.788096 476.200615,504.964096 C476.416615,503.140096 476.536615,498.364096 476.536615,490.588096 L471.256615,490.588096 L471.256615,486.124096 L469.960615,486.124096 Z M480.472615,487.276096 L480.472615,488.524096 L489.736615,488.524096 L489.736615,491.428096 L482.632615,491.428096 L482.632615,500.500096 L479.752615,500.500096 L479.752615,501.748096 L482.632615,501.748096 L482.632615,507.940096 L483.928615,507.940096 L483.928615,501.748096 L496.840615,501.748096 L496.840615,505.348096 C496.840615,506.212096 496.456615,506.668096 495.688615,506.668096 L493.528615,506.596096 L493.864615,507.868096 L496.120615,507.868096 C497.464615,507.868096 498.136615,507.100096 498.136615,505.612096 L498.136615,501.748096 L501.016615,501.748096 L501.016615,500.500096 L498.136615,500.500096 L498.136615,491.428096 L491.032615,491.428096 L491.032615,488.524096 L500.320615,488.524096 L500.320615,487.276096 L480.472615,487.276096 Z M483.928615,500.500096 L483.928615,497.068096 L489.736615,497.068096 L489.736615,500.500096 L483.928615,500.500096 Z M491.032615,500.500096 L491.032615,497.068096 L496.840615,497.068096 L496.840615,500.500096 L491.032615,500.500096 Z M483.928615,495.892096 L483.928615,492.628096 L489.736615,492.628096 L489.736615,495.892096 L483.928615,495.892096 Z M491.032615,492.628096 L496.840615,492.628096 L496.840615,495.892096 L491.032615,495.892096 L491.032615,492.628096 Z M504.784615,487.252096 L504.784615,488.548096 L513.640615,488.548096 L513.640615,498.028096 L503.824615,498.028096 L503.824615,499.300096 L513.640615,499.300096 L513.640615,507.940096 L514.936615,507.940096 L514.936615,499.300096 L524.944615,499.300096 L524.944615,498.028096 L514.936615,498.028096 L514.936615,488.548096 L524.056615,488.548096 L524.056615,487.252096 L504.784615,487.252096 Z M507.376615,490.396096 L506.176615,490.972096 C507.088615,492.604096 507.976615,494.452096 508.792615,496.540096 L510.016615,495.940096 C509.200615,493.924096 508.312615,492.076096 507.376615,490.396096 L507.376615,490.396096 Z M521.488615,490.228096 C520.768615,492.100096 519.784615,493.972096 518.536615,495.868096 L519.712615,496.468096 C520.912615,494.644096 521.920615,492.748096 522.688615,490.780096 L521.488615,490.228096 Z M534.040615,491.428096 L534.040615,499.516096 L537.712615,499.516096 C537.664615,500.236096 537.592615,500.908096 537.496615,501.532096 L533.200615,501.532096 L533.200615,502.708096 L537.208615,502.708096 C537.136615,502.948096 537.064615,503.188096 536.968615,503.428096 C536.296615,504.868096 535.000615,506.044096 533.032615,506.980096 L533.800615,507.940096 C535.792615,506.980096 537.160615,505.756096 537.928615,504.268096 C539.392615,505.108096 540.832615,506.212096 542.224615,507.556096 L542.920615,506.476096 C541.528615,505.252096 539.992615,504.196096 538.312615,503.332096 C538.360615,503.140096 538.432615,502.924096 538.480615,502.708096 L543.568615,502.708096 L543.568615,501.532096 L538.720615,501.532096 C538.816615,500.908096 538.864615,500.236096 538.912615,499.516096 L542.560615,499.516096 L542.560615,491.116096 L539.608615,491.116096 C540.184615,490.468096 540.784615,489.652096 541.408615,488.668096 L541.408615,487.756096 L537.400615,487.756096 C537.736615,487.276096 538.024615,486.748096 538.312615,486.196096 L537.064615,485.908096 C536.008615,487.924096 534.592615,489.580096 532.792615,490.900096 L533.560615,491.812096 C533.704615,491.692096 533.872615,491.572096 534.040615,491.428096 L534.040615,491.428096 Z M538.312615,491.116096 L534.424615,491.116096 C535.240615,490.444096 535.960615,489.676096 536.632615,488.836096 L540.064615,488.836096 C539.512615,489.700096 538.936615,490.444096 538.312615,491.116096 L538.312615,491.116096 Z M541.456615,498.460096 L538.840615,498.460096 L538.840615,495.796096 L541.456615,495.796096 L541.456615,498.460096 Z M537.784615,498.460096 L535.168615,498.460096 L535.168615,495.796096 L537.784615,495.796096 L537.784615,498.460096 Z M535.168615,494.812096 L535.168615,492.148096 L537.784615,492.148096 L537.784615,494.812096 L535.168615,494.812096 Z M538.840615,492.148096 L541.456615,492.148096 L541.456615,494.812096 L538.840615,494.812096 L538.840615,492.148096 Z M531.736615,486.100096 C530.872615,488.332096 529.432615,490.348096 527.416615,492.124096 L527.800615,493.372096 C530.104615,491.452096 531.784615,489.196096 532.840615,486.604096 L531.736615,486.100096 Z M532.048615,492.436096 C531.088615,494.836096 529.528615,496.996096 527.368615,498.916096 L527.752615,500.140096 C528.616615,499.396096 529.432615,498.604096 530.152615,497.788096 L530.152615,507.964096 L531.376615,507.964096 L531.376615,496.204096 C532.072615,495.196096 532.672615,494.092096 533.152615,492.940096 L532.048615,492.436096 Z M545.728615,507.868096 C546.832615,507.868096 547.408615,507.316096 547.408615,506.236096 L547.408615,495.124096 L549.328615,495.124096 L549.328615,493.924096 L543.424615,493.924096 L543.424615,495.124096 L546.184615,495.124096 L546.184615,505.924096 C546.184615,506.476096 545.872615,506.764096 545.296615,506.764096 C544.816615,506.764096 544.312615,506.716096 543.784615,506.668096 L544.048615,507.868096 L545.728615,507.868096 Z M543.688615,487.852096 L543.688615,489.076096 L548.968615,489.076096 L548.968615,487.852096 L543.688615,487.852096 Z" id="自动再平衡" fill="#4F4F4F" sketch:type="MSShapeGroup"></path>
            <path d="M203.088112,148.733088 L201.32028,149.046374 C201.588811,149.56106 201.857343,150.1205 202.081119,150.747074 L192.906294,150.747074 L192.906294,152.223997 L212.665734,152.223997 L212.665734,150.747074 L203.804196,150.747074 C203.58042,150.008612 203.334266,149.337283 203.088112,148.733088 L203.088112,148.733088 Z M209.085315,169.3205 C210.718881,169.3205 211.546853,168.604416 211.546853,167.194626 L211.546853,159.362458 L194.047552,159.362458 L194.047552,169.387633 L195.591608,169.387633 L195.591608,160.772248 L210.002797,160.772248 L210.002797,166.858962 C210.002797,167.575046 209.532867,167.933088 208.615385,167.933088 L206.825175,167.865955 L207.205594,169.3205 L209.085315,169.3205 Z M196.553846,153.678542 L196.553846,158.019801 L209.062937,158.019801 L209.062937,153.678542 L196.553846,153.678542 Z M207.496503,156.766654 L198.12028,156.766654 L198.12028,154.931689 L207.496503,154.931689 L207.496503,156.766654 Z M198.411189,162.204416 L198.411189,166.679941 L207.205594,166.679941 L207.205594,162.204416 L198.411189,162.204416 Z M205.773427,165.471549 L199.865734,165.471549 L199.865734,163.412808 L205.773427,163.412808 L205.773427,165.471549 Z M220.005594,148.733088 C218.909091,152.201619 217.163636,155.267353 214.791608,157.952668 L215.306294,159.675745 C216.179021,158.758262 216.984615,157.796025 217.723077,156.811409 L217.723077,169.432388 L219.334266,169.432388 L219.334266,154.349871 C220.206993,152.805815 220.923077,151.172248 221.504895,149.426794 L220.005594,148.733088 Z M221.393007,152.470151 L221.393007,154.014206 L234.864336,154.014206 L234.864336,152.470151 L229.023776,152.470151 C228.71049,151.127493 228.374825,149.941479 228.016783,148.912109 L226.316084,149.203018 C226.718881,150.187633 227.099301,151.284137 227.412587,152.470151 L221.393007,152.470151 Z M221.012587,166.747074 L221.012587,168.335885 L235.446154,168.335885 L235.446154,166.747074 L230.366434,166.747074 C231.485315,163.591829 232.447552,159.966654 233.230769,155.871549 L231.686713,155.468752 C230.836364,159.989032 229.851748,163.748472 228.71049,166.747074 L221.012587,166.747074 Z M224.145455,155.714906 L222.668531,156.162458 C223.608392,159.340081 224.391608,162.629591 224.995804,166.03099 L226.495105,165.628192 C225.801399,161.913507 225.018182,158.601619 224.145455,155.714906 L224.145455,155.714906 Z" id="高位" fill="#FFFFFF" sketch:type="MSShapeGroup"></path>
            <path d="M350.948252,227.145082 L356.162238,227.145082 C356.274126,228.286341 356.430769,229.315712 356.632168,230.233194 C357.124476,232.6276 357.773427,234.440187 358.579021,235.670956 C359.362238,236.85697 360.100699,237.461166 360.794406,237.461166 C361.6,237.461166 362.226573,235.8276 362.651748,232.605222 L361.309091,231.866761 C361.085315,234.328299 360.816783,235.559068 360.525874,235.581446 C360.234965,235.581446 359.854545,235.111516 359.362238,234.171656 C358.847552,233.164663 358.4,231.665362 358.041958,229.673754 C357.907692,228.95767 357.773427,228.10732 357.683916,227.145082 L362.338462,227.145082 L362.338462,225.601026 L357.54965,225.601026 C357.46014,224.05697 357.393007,222.244383 357.370629,220.140887 C358.892308,219.782845 360.19021,219.424803 361.309091,219.044383 L360.413986,217.746481 C357.795804,218.641586 354.125874,219.44718 349.404196,220.163264 L349.404196,234.910117 C349.404196,235.335292 349.158042,235.626201 348.688112,235.782845 L349.113287,237.170257 C350.67972,236.655572 352.067133,236.163264 353.230769,235.693334 L352.962238,234.283544 C352.313287,234.596831 351.641958,234.910117 350.948252,235.178649 L350.948252,227.145082 Z M355.826573,220.476551 C355.826573,222.356271 355.893706,224.079348 356.027972,225.601026 L350.948252,225.601026 L350.948252,221.371656 C352.716084,221.080747 354.34965,220.789838 355.826573,220.476551 L355.826573,220.476551 Z M354.640559,232.896131 L353.521678,233.701726 C354.662937,235.156271 355.602797,236.521306 356.341259,237.796831 L357.572028,236.968859 C356.878322,235.782845 355.893706,234.41781 354.640559,232.896131 L354.640559,232.896131 Z M347.233566,217.343684 C346.159441,220.789838 344.413986,223.855572 342.01958,226.518509 L342.534266,228.219208 C343.429371,227.279348 344.234965,226.31711 344.995804,225.28774 L344.995804,237.931096 L346.562238,237.931096 L346.562238,222.848579 C347.412587,221.3269 348.128671,219.715712 348.688112,218.015012 L347.233566,217.343684 Z M369.655944,217.231796 C368.559441,220.700327 366.813986,223.766061 364.441958,226.451376 L364.956643,228.174453 C365.829371,227.25697 366.634965,226.294733 367.373427,225.310117 L367.373427,237.931096 L368.984615,237.931096 L368.984615,222.848579 C369.857343,221.304523 370.573427,219.670956 371.155245,217.925502 L369.655944,217.231796 Z M371.043357,220.968859 L371.043357,222.512914 L384.514685,222.512914 L384.514685,220.968859 L378.674126,220.968859 C378.360839,219.626201 378.025175,218.440187 377.667133,217.410817 L375.966434,217.701726 C376.369231,218.686341 376.74965,219.782845 377.062937,220.968859 L371.043357,220.968859 Z M370.662937,235.245782 L370.662937,236.834593 L385.096503,236.834593 L385.096503,235.245782 L380.016783,235.245782 C381.135664,232.090537 382.097902,228.465362 382.881119,224.370257 L381.337063,223.96746 C380.486713,228.48774 379.502098,232.24718 378.360839,235.245782 L370.662937,235.245782 Z M373.795804,224.213614 L372.318881,224.661166 C373.258741,227.838789 374.041958,231.128299 374.646154,234.529698 L376.145455,234.1269 C375.451748,230.412215 374.668531,227.100327 373.795804,224.213614 L373.795804,224.213614 Z" id="低位" fill="#FFFFFF" sketch:type="MSShapeGroup"></path>
        </g>
    </g>
</svg>